  0
SECTION
  2
HEADER
  9
$ACADVER
  1
AC1009
  9
$DWGCODEPAGE
  3
ansi_1252
  9
$INSBASE
 10
0.0
 20
0.0
 30
0.0
  9
$EXTMIN
 10
1.162499999999998
 20
1.173442886789665
 30
0.0
  9
$EXTMAX
 10
96.41317128624033
 20
46.6406496063
 30
0.0
  9
$LIMMIN
 10
0.0
 20
0.0
  9
$LIMMAX
 10
12.0
 20
9.0
  9
$ORTHOMODE
 70
     0
  9
$REGENMODE
 70
     1
  9
$FILLMODE
 70
     1
  9
$QTEXTMODE
 70
     0
  9
$MIRRTEXT
 70
     1
  9
$DRAGMODE
 70
     2
  9
$LTSCALE
 40
1.0
  9
$OSMODE
 70
    37
  9
$ATTMODE
 70
     1
  9
$TEXTSIZE
 40
0.2
  9
$TRACEWID
 40
0.05
  9
$TEXTSTYLE
  7
STANDARD
  9
$CLAYER
  8
0
  9
$CELTYPE
  6
BYLAYER
  9
$CECOLOR
 62
   256
  9
$DIMSCALE
 40
1.0
  9
$DIMASZ
 40
0.18
  9
$DIMEXO
 40
0.0625
  9
$DIMDLI
 40
0.38
  9
$DIMRND
 40
0.0
  9
$DIMDLE
 40
0.0
  9
$DIMEXE
 40
0.18
  9
$DIMTP
 40
0.0
  9
$DIMTM
 40
0.0
  9
$DIMTXT
 40
0.18
  9
$DIMCEN
 40
0.09
  9
$DIMTSZ
 40
0.0
  9
$DIMTOL
 70
     0
  9
$DIMLIM
 70
     0
  9
$DIMTIH
 70
     1
  9
$DIMTOH
 70
     1
  9
$DIMSE1
 70
     0
  9
$DIMSE2
 70
     0
  9
$DIMTAD
 70
     0
  9
$DIMZIN
 70
     0
  9
$DIMBLK
  1

  9
$DIMASO
 70
     1
  9
$DIMSHO
 70
     1
  9
$DIMPOST
  1

  9
$DIMAPOST
  1

  9
$DIMALT
 70
     0
  9
$DIMALTD
 70
     2
  9
$DIMALTF
 40
25.4
  9
$DIMLFAC
 40
1.0
  9
$DIMTOFL
 70
     0
  9
$DIMTVP
 40
0.0
  9
$DIMTIX
 70
     0
  9
$DIMSOXD
 70
     0
  9
$DIMSAH
 70
     0
  9
$DIMBLK1
  1

  9
$DIMBLK2
  1

  9
$DIMSTYLE
  2
STANDARD
  9
$DIMCLRD
 70
     0
  9
$DIMCLRE
 70
     0
  9
$DIMCLRT
 70
     0
  9
$DIMTFAC
 40
1.0
  9
$DIMGAP
 40
0.09
  9
$LUNITS
 70
     2
  9
$LUPREC
 70
     4
  9
$SKETCHINC
 40
0.1
  9
$FILLETRAD
 40
0.5
  9
$AUNITS
 70
     0
  9
$AUPREC
 70
     0
  9
$MENU
  1
.
  9
$ELEVATION
 40
0.0
  9
$PELEVATION
 40
0.0
  9
$THICKNESS
 40
0.0
  9
$LIMCHECK
 70
     0
  9
$CHAMFERA
 40
0.0
  9
$CHAMFERB
 40
0.0
  9
$SKPOLY
 70
     0
  9
$TDCREATE
 40
2454910.5
  9
$TDUPDATE
 40
2460222.909822246
  9
$TDINDWG
 40
0.0000000116
  9
$TDUSRTIMER
 40
0.0000000116
  9
$USRTIMER
 70
     1
  9
$ANGBASE
 50
0.0
  9
$ANGDIR
 70
     0
  9
$PDMODE
 70
     0
  9
$PDSIZE
 40
0.0
  9
$PLINEWID
 40
0.0
  9
$COORDS
 70
     1
  9
$SPLFRAME
 70
     0
  9
$SPLINETYPE
 70
     6
  9
$SPLINESEGS
 70
     8
  9
$ATTDIA
 70
     0
  9
$ATTREQ
 70
     1
  9
$HANDLING
 70
     1
  9
$HANDSEED
  5
52F
  9
$SURFTAB1
 70
     6
  9
$SURFTAB2
 70
     6
  9
$SURFTYPE
 70
     6
  9
$SURFU
 70
     6
  9
$SURFV
 70
     6
  9
$UCSNAME
  2

  9
$UCSORG
 10
0.0
 20
0.0
 30
0.0
  9
$UCSXDIR
 10
1.0
 20
0.0
 30
0.0
  9
$UCSYDIR
 10
0.0
 20
1.0
 30
0.0
  9
$PUCSNAME
  2

  9
$PUCSORG
 10
0.0
 20
0.0
 30
0.0
  9
$PUCSXDIR
 10
1.0
 20
0.0
 30
0.0
  9
$PUCSYDIR
 10
0.0
 20
1.0
 30
0.0
  9
$USERI1
 70
     0
  9
$USERI2
 70
     0
  9
$USERI3
 70
     0
  9
$USERI4
 70
     0
  9
$USERI5
 70
     0
  9
$USERR1
 40
0.0
  9
$USERR2
 40
0.0
  9
$USERR3
 40
0.0
  9
$USERR4
 40
0.0
  9
$USERR5
 40
0.0
  9
$WORLDVIEW
 70
     1
  9
$SHADEDGE
 70
     3
  9
$SHADEDIF
 70
    70
  9
$TILEMODE
 70
     1
  9
$MAXACTVP
 70
    64
  9
$PLIMCHECK
 70
     0
  9
$PEXTMIN
 10
1.000000000000000E+20
 20
1.000000000000000E+20
 30
1.000000000000000E+20
  9
$PEXTMAX
 10
-1.000000000000000E+20
 20
-1.000000000000000E+20
 30
-1.000000000000000E+20
  9
$PLIMMIN
 10
0.0
 20
0.0
  9
$PLIMMAX
 10
12.0
 20
9.0
  9
$UNITMODE
 70
     0
  9
$VISRETAIN
 70
     1
  9
$PLINEGEN
 70
     0
  9
$PSLTSCALE
 70
     1
  0
ENDSEC
  0
SECTION
  2
TABLES
  0
TABLE
  2
VPORT
 70
     1
  0
VPORT
  2
*ACTIVE
 70
     0
 10
0.0
 20
0.0
 11
1.0
 21
1.0
 12
10.42990654205607
 22
4.5
 13
0.0
 23
0.0
 14
0.5
 24
0.5
 15
0.5
 25
0.5
 16
0.0
 26
0.0
 36
1.0
 17
0.0
 27
0.0
 37
0.0
 40
9.0
 41
1.972972972850329
 42
50.0
 43
0.0
 44
0.0
 50
0.0
 51
0.0
 71
     0
 72
   100
 73
     1
 74
     3
 75
     0
 76
     0
 77
     0
 78
     0
  0
ENDTAB
  0
TABLE
  2
LTYPE
 70
     2
  0
LTYPE
  2
CONTINUOUS
 70
     0
  3
Solid line
 72
    65
 73
     0
 40
0.0
  0
LTYPE
  2
CONTINUOUS2
 70
     0
  3
Solid Line
 72
    65
 73
     0
 40
0.0
  0
ENDTAB
  0
TABLE
  2
LAYER
 70
     2
  0
LAYER
  2
0
 70
     0
 62
     7
  6
CONTINUOUS
  0
LAYER
  2
LAYER_1
 70
     0
 62
     7
  6
CONTINUOUS
  0
ENDTAB
  0
TABLE
  2
STYLE
 70
     1
  0
STYLE
  2
STANDARD
 70
     0
 40
0.0
 41
1.0
 50
0.0
 71
     0
 42
0.2
  3
txt
  4

  0
ENDTAB
  0
TABLE
  2
VIEW
 70
     0
  0
ENDTAB
  0
TABLE
  2
UCS
 70
     0
  0
ENDTAB
  0
TABLE
  2
APPID
 70
     1
  0
APPID
  2
ACAD
 70
     0
  0
ENDTAB
  0
TABLE
  2
DIMSTYLE
 70
     1
  0
DIMSTYLE
  2
STANDARD
 70
     0
  3

  4

  5

  6

  7

 40
1.0
 41
0.18
 42
0.0625
 43
0.38
 44
0.18
 45
0.0
 46
0.0
 47
0.0
 48
0.0
140
0.18
141
0.09
142
0.0
143
25.4
144
1.0
145
0.0
146
1.0
147
0.09
 71
     0
 72
     0
 73
     1
 74
     1
 75
     0
 76
     0
 77
     0
 78
     0
170
     0
171
     2
172
     0
173
     0
174
     0
175
     0
176
     0
177
     0
178
     0
  0
ENDTAB
  0
ENDSEC
  0
SECTION
  2
BLOCKS
  0
BLOCK
  8
0
  2
$MODEL_SPACE
 70
     0
 10
0.0
 20
0.0
 30
0.0
  3
$MODEL_SPACE
  1

  0
ENDBLK
  5
21
  8
0
  0
BLOCK
 67
     1
  8
0
  2
$PAPER_SPACE
 70
     0
 10
0.0
 20
0.0
 30
0.0
  3
$PAPER_SPACE
  1

  0
ENDBLK
  5
1D
 67
     1
  8
0
  0
ENDSEC
  0
SECTION
  2
ENTITIES
  0
POLYLINE
  5
70
  8
LAYER_1
 66
     1
 10
0.0
 20
0.0
 30
0.0
 70
     1
  0
VERTEX
  5
E7
  8
LAYER_1
 10
10.16249999999999
 20
10.36653543317998
 30
0.0
 42
0.4142135623730951
  0
VERTEX
  5
E8
  8
LAYER_1
 10
6.162499999999992
 20
14.36653543318
 30
0.0
 42
0.4142135623730951
  0
VERTEX
  5
E9
  8
LAYER_1
 10
2.162499999999992
 20
10.36653543317998
 30
0.0
 42
0.4142135623730951
  0
VERTEX
  5
EA
  8
LAYER_1
 10
6.162499999999993
 20
6.366535433179983
 30
0.0
 42
0.4142135623730951
  0
SEQEND
  5
4BF
  8
LAYER_1
  0
POLYLINE
  5
71
  8
LAYER_1
 66
     1
 10
0.0
 20
0.0
 30
0.0
 70
     1
  0
VERTEX
  5
EB
  8
LAYER_1
 10
18.16250000000002
 20
12.83528543318001
 30
0.0
 42
-0.4142135623730951
  0
VERTEX
  5
EC
  8
LAYER_1
 10
15.91250000000002
 20
10.58528543318
 30
0.0
 42
-0.4142135623730951
  0
VERTEX
  5
ED
  8
LAYER_1
 10
13.66250000000002
 20
12.83528543318001
 30
0.0
 42
-0.4142135623730951
  0
VERTEX
  5
EE
  8
LAYER_1
 10
15.91250000000002
 20
15.08528543318001
 30
0.0
 42
-0.4142135623730951
  0
SEQEND
  5
4C0
  8
LAYER_1
  0
POLYLINE
  5
72
  8
LAYER_1
 66
     1
 10
0.0
 20
0.0
 30
0.0
 70
     1
  0
VERTEX
  5
EF
  8
LAYER_1
 10
18.16250000000002
 20
7.897785433179985
 30
0.0
 42
0.4142135623730951
  0
VERTEX
  5
F0
  8
LAYER_1
 10
15.91250000000002
 20
10.14778543318
 30
0.0
 42
0.4142135623730951
  0
VERTEX
  5
F1
  8
LAYER_1
 10
13.66250000000002
 20
7.897785433179983
 30
0.0
 42
0.4142135623730951
  0
VERTEX
  5
F2
  8
LAYER_1
 10
15.91250000000002
 20
5.647785433179985
 30
0.0
 42
0.4142135623730951
  0
SEQEND
  5
4C1
  8
LAYER_1
  0
POLYLINE
  5
73
  8
LAYER_1
 66
     1
 10
0.0
 20
0.0
 30
0.0
 70
     1
  0
VERTEX
  5
F3
  8
LAYER_1
 10
10.66249999999999
 20
2.324558811354386
 30
0.0
 42
-0.4142135623730951
  0
VERTEX
  5
F4
  8
LAYER_1
 10
10.41249999999999
 20
2.574558811354386
 30
0.0
  0
VERTEX
  5
F5
  8
LAYER_1
 10
10.41249999999999
 20
4.074558811354386
 30
0.0
 42
-0.4142135623730951
  0
VERTEX
  5
F6
  8
LAYER_1
 10
10.66249999999999
 20
4.324558811354386
 30
0.0
 42
-0.4142135623730951
  0
VERTEX
  5
F7
  8
LAYER_1
 10
10.91249999999999
 20
4.074558811354386
 30
0.0
  0
VERTEX
  5
F8
  8
LAYER_1
 10
10.91249999999999
 20
2.574558811354386
 30
0.0
 42
-0.4142135623730951
  0
SEQEND
  5
4C2
  8
LAYER_1
  0
POLYLINE
  5
74
  8
LAYER_1
 66
     1
 10
0.0
 20
0.0
 30
0.0
 70
     1
  0
VERTEX
  5
F9
  8
LAYER_1
 10
2.931708639929235
 20
3.588196096007827
 30
0.0
 42
-0.4142135623730951
  0
VERTEX
  5
FA
  8
LAYER_1
 10
2.681708639929235
 20
3.838196096007827
 30
0.0
 42
-0.4142135623730951
  0
VERTEX
  5
FB
  8
LAYER_1
 10
2.931708639929235
 20
4.088196096007827
 30
0.0
  0
VERTEX
  5
FC
  8
LAYER_1
 10
4.431708639929235
 20
4.088196096007827
 30
0.0
 42
-0.4142135623730951
  0
VERTEX
  5
FD
  8
LAYER_1
 10
4.681708639929235
 20
3.838196096007827
 30
0.0
 42
-0.4142135623730951
  0
VERTEX
  5
FE
  8
LAYER_1
 10
4.431708639929235
 20
3.588196096007827
 30
0.0
  0
SEQEND
  5
4C3
  8
LAYER_1
  0
POLYLINE
  5
75
  8
LAYER_1
 66
     1
 10
0.0
 20
0.0
 30
0.0
 70
     1
  0
VERTEX
  5
FF
  8
LAYER_1
 10
2.931708639929235
 20
17.14487477035217
 30
0.0
 42
0.4142135623730951
  0
VERTEX
  5
100
  8
LAYER_1
 10
2.681708639929235
 20
16.89487477035217
 30
0.0
 42
0.4142135623730951
  0
VERTEX
  5
101
  8
LAYER_1
 10
2.931708639929235
 20
16.64487477035217
 30
0.0
  0
VERTEX
  5
102
  8
LAYER_1
 10
4.431708639929234
 20
16.64487477035217
 30
0.0
 42
0.4142135623730951
  0
VERTEX
  5
103
  8
LAYER_1
 10
4.681708639929234
 20
16.89487477035217
 30
0.0
 42
0.4142135623730951
  0
VERTEX
  5
104
  8
LAYER_1
 10
4.431708639929234
 20
17.14487477035217
 30
0.0
  0
SEQEND
  5
4C4
  8
LAYER_1
  0
POLYLINE
  5
76
  8
LAYER_1
 66
     1
 10
0.0
 20
0.0
 30
0.0
 70
     1
  0
VERTEX
  5
105
  8
LAYER_1
 10
13.34184980756408
 20
18.86703867080717
 30
0.0
 42
-0.4142135623730951
  0
VERTEX
  5
106
  8
LAYER_1
 10
13.59184980756408
 20
18.61703867080717
 30
0.0
 42
-0.4142135623730951
  0
VERTEX
  5
107
  8
LAYER_1
 10
13.34184980756408
 20
18.36703867080717
 30
0.0
  0
VERTEX
  5
108
  8
LAYER_1
 10
11.84184980756408
 20
18.36703867080717
 30
0.0
 42
-0.4142135623730951
  0
VERTEX
  5
109
  8
LAYER_1
 10
11.59184980756408
 20
18.61703867080717
 30
0.0
 42
-0.4142135623730951
  0
VERTEX
  5
10A
  8
LAYER_1
 10
11.84184980756408
 20
18.86703867080717
 30
0.0
  0
SEQEND
  5
4C5
  8
LAYER_1
  0
POLYLINE
  5
77
  8
LAYER_1
 66
     1
 10
0.0
 20
0.0
 30
0.0
 70
     1
  0
VERTEX
  5
10B
  8
LAYER_1
 10
10.66249999999999
 20
18.40851205500561
 30
0.0
 42
0.4142135623730951
  0
VERTEX
  5
10C
  8
LAYER_1
 10
10.41249999999999
 20
18.15851205500561
 30
0.0
  0
VERTEX
  5
10D
  8
LAYER_1
 10
10.41249999999999
 20
16.65851205500561
 30
0.0
 42
0.4142135623730951
  0
VERTEX
  5
10E
  8
LAYER_1
 10
10.66249999999999
 20
16.40851205500561
 30
0.0
 42
0.4142135623730951
  0
VERTEX
  5
10F
  8
LAYER_1
 10
10.91249999999999
 20
16.65851205500561
 30
0.0
  0
VERTEX
  5
110
  8
LAYER_1
 10
10.91249999999999
 20
18.15851205500561
 30
0.0
 42
0.4142135623730951
  0
SEQEND
  5
4C6
  8
LAYER_1
  0
POLYLINE
  5
78
  8
LAYER_1
 66
     1
 10
0.0
 20
0.0
 30
0.0
 70
     1
  0
VERTEX
  5
111
  8
LAYER_1
 10
17.76829136007077
 20
1.866032195552826
 30
0.0
 42
0.4142135623730951
  0
VERTEX
  5
112
  8
LAYER_1
 10
18.01829136007077
 20
2.116032195552826
 30
0.0
 42
0.4142135623730951
  0
VERTEX
  5
113
  8
LAYER_1
 10
17.76829136007077
 20
2.366032195552826
 30
0.0
  0
VERTEX
  5
114
  8
LAYER_1
 10
16.26829136007077
 20
2.366032195552826
 30
0.0
 42
0.4142135623730951
  0
VERTEX
  5
115
  8
LAYER_1
 10
16.01829136007077
 20
2.116032195552826
 30
0.0
 42
0.4142135623730951
  0
VERTEX
  5
116
  8
LAYER_1
 10
16.26829136007077
 20
1.866032195552826
 30
0.0
  0
SEQEND
  5
4C7
  8
LAYER_1
  0
POLYLINE
  5
79
  8
LAYER_1
 66
     1
 10
0.0
 20
0.0
 30
0.0
 70
     1
  0
VERTEX
  5
117
  8
LAYER_1
 10
7.358150192435932
 20
3.588196096007827
 30
0.0
 42
-0.4142135623730951
  0
VERTEX
  5
118
  8
LAYER_1
 10
7.108150192435932
 20
3.838196096007827
 30
0.0
 42
-0.4142135623730951
  0
VERTEX
  5
119
  8
LAYER_1
 10
7.358150192435932
 20
4.088196096007827
 30
0.0
  0
VERTEX
  5
11A
  8
LAYER_1
 10
8.858150192435934
 20
4.088196096007827
 30
0.0
 42
-0.4142135623730951
  0
VERTEX
  5
11B
  8
LAYER_1
 10
9.108150192435934
 20
3.838196096007827
 30
0.0
 42
-0.4142135623730951
  0
VERTEX
  5
11C
  8
LAYER_1
 10
8.858150192435934
 20
3.588196096007827
 30
0.0
  0
SEQEND
  5
4C8
  8
LAYER_1
  0
POLYLINE
  5
7A
  8
LAYER_1
 66
     1
 10
0.0
 20
0.0
 30
0.0
 70
     1
  0
VERTEX
  5
11D
  8
LAYER_1
 10
17.76829136007077
 20
18.86703867080717
 30
0.0
 42
-0.4142135623730951
  0
VERTEX
  5
11E
  8
LAYER_1
 10
18.01829136007077
 20
18.61703867080717
 30
0.0
 42
-0.4142135623730951
  0
VERTEX
  5
11F
  8
LAYER_1
 10
17.76829136007077
 20
18.36703867080717
 30
0.0
  0
VERTEX
  5
120
  8
LAYER_1
 10
16.26829136007077
 20
18.36703867080717
 30
0.0
 42
-0.4142135623730951
  0
VERTEX
  5
121
  8
LAYER_1
 10
16.01829136007077
 20
18.61703867080717
 30
0.0
 42
-0.4142135623730951
  0
VERTEX
  5
122
  8
LAYER_1
 10
16.26829136007077
 20
18.86703867080717
 30
0.0
  0
SEQEND
  5
4C9
  8
LAYER_1
  0
POLYLINE
  5
7B
  8
LAYER_1
 66
     1
 10
0.0
 20
0.0
 30
0.0
 70
     1
  0
VERTEX
  5
123
  8
LAYER_1
 10
7.358150192435931
 20
17.14487477035217
 30
0.0
 42
0.4142135623730951
  0
VERTEX
  5
124
  8
LAYER_1
 10
7.108150192435931
 20
16.89487477035217
 30
0.0
 42
0.4142135623730951
  0
VERTEX
  5
125
  8
LAYER_1
 10
7.358150192435931
 20
16.64487477035217
 30
0.0
  0
VERTEX
  5
126
  8
LAYER_1
 10
8.858150192435932
 20
16.64487477035217
 30
0.0
 42
0.4142135623730951
  0
VERTEX
  5
127
  8
LAYER_1
 10
9.108150192435932
 20
16.89487477035217
 30
0.0
 42
0.4142135623730951
  0
VERTEX
  5
128
  8
LAYER_1
 10
8.858150192435932
 20
17.14487477035217
 30
0.0
  0
SEQEND
  5
4CA
  8
LAYER_1
  0
POLYLINE
  5
7C
  8
LAYER_1
 66
     1
 10
0.0
 20
0.0
 30
0.0
 70
     1
  0
VERTEX
  5
129
  8
LAYER_1
 10
13.34184980756408
 20
1.866032195552826
 30
0.0
 42
0.4142135623730951
  0
VERTEX
  5
12A
  8
LAYER_1
 10
13.59184980756408
 20
2.116032195552826
 30
0.0
 42
0.4142135623730951
  0
VERTEX
  5
12B
  8
LAYER_1
 10
13.34184980756408
 20
2.366032195552826
 30
0.0
  0
VERTEX
  5
12C
  8
LAYER_1
 10
11.84184980756408
 20
2.366032195552826
 30
0.0
 42
0.4142135623730951
  0
VERTEX
  5
12D
  8
LAYER_1
 10
11.59184980756408
 20
2.116032195552826
 30
0.0
 42
0.4142135623730951
  0
VERTEX
  5
12E
  8
LAYER_1
 10
11.84184980756408
 20
1.866032195552826
 30
0.0
  0
SEQEND
  5
4CB
  8
LAYER_1
  0
POLYLINE
  5
7D
  8
LAYER_1
 66
     1
 10
0.0
 20
0.0
 30
0.0
 70
     1
  0
VERTEX
  5
12F
  8
LAYER_1
 10
1.162500000000003
 20
38.66820866145
 30
0.0
  0
VERTEX
  5
130
  8
LAYER_1
 10
1.162500000000004
 20
20.29320866145
 30
0.0
  0
VERTEX
  5
131
  8
LAYER_1
 10
19.5375
 20
20.29320866145
 30
0.0
  0
VERTEX
  5
132
  8
LAYER_1
 10
19.5375
 20
38.66820866145
 30
0.0
  0
SEQEND
  5
4CC
  8
LAYER_1
  0
POLYLINE
  5
7E
  8
LAYER_1
 66
     1
 10
0.0
 20
0.0
 30
0.0
 70
     1
  0
VERTEX
  5
133
  8
LAYER_1
 10
10.16249999999999
 20
29.48070866144998
 30
0.0
 42
0.4142135623730951
  0
VERTEX
  5
134
  8
LAYER_1
 10
6.162499999999991
 20
33.48070866145
 30
0.0
 42
0.4142135623730951
  0
VERTEX
  5
135
  8
LAYER_1
 10
2.162499999999991
 20
29.48070866144998
 30
0.0
 42
0.4142135623730951
  0
VERTEX
  5
136
  8
LAYER_1
 10
6.162499999999991
 20
25.48070866144998
 30
0.0
 42
0.4142135623730951
  0
SEQEND
  5
4CD
  8
LAYER_1
  0
POLYLINE
  5
7F
  8
LAYER_1
 66
     1
 10
0.0
 20
0.0
 30
0.0
 70
     1
  0
VERTEX
  5
137
  8
LAYER_1
 10
18.16250000000002
 20
31.94945866145001
 30
0.0
 42
-0.4142135623730951
  0
VERTEX
  5
138
  8
LAYER_1
 10
15.91250000000002
 20
29.69945866145
 30
0.0
 42
-0.4142135623730951
  0
VERTEX
  5
139
  8
LAYER_1
 10
13.66250000000002
 20
31.94945866145001
 30
0.0
 42
-0.4142135623730951
  0
VERTEX
  5
13A
  8
LAYER_1
 10
15.91250000000002
 20
34.19945866145001
 30
0.0
 42
-0.4142135623730951
  0
SEQEND
  5
4CE
  8
LAYER_1
  0
POLYLINE
  5
80
  8
LAYER_1
 66
     1
 10
0.0
 20
0.0
 30
0.0
 70
     1
  0
VERTEX
  5
13B
  8
LAYER_1
 10
18.16250000000002
 20
27.01195866144998
 30
0.0
 42
0.4142135623730951
  0
VERTEX
  5
13C
  8
LAYER_1
 10
15.91250000000002
 20
29.26195866145
 30
0.0
 42
0.4142135623730951
  0
VERTEX
  5
13D
  8
LAYER_1
 10
13.66250000000002
 20
27.01195866144998
 30
0.0
 42
0.4142135623730951
  0
VERTEX
  5
13E
  8
LAYER_1
 10
15.91250000000002
 20
24.76195866144998
 30
0.0
 42
0.4142135623730951
  0
SEQEND
  5
4CF
  8
LAYER_1
  0
POLYLINE
  5
81
  8
LAYER_1
 66
     1
 10
0.0
 20
0.0
 30
0.0
 70
     1
  0
VERTEX
  5
13F
  8
LAYER_1
 10
10.66249999999999
 20
21.43873203962438
 30
0.0
 42
-0.4142135623730951
  0
VERTEX
  5
140
  8
LAYER_1
 10
10.41249999999999
 20
21.68873203962438
 30
0.0
  0
VERTEX
  5
141
  8
LAYER_1
 10
10.41249999999999
 20
23.18873203962438
 30
0.0
 42
-0.4142135623730951
  0
VERTEX
  5
142
  8
LAYER_1
 10
10.66249999999999
 20
23.43873203962438
 30
0.0
 42
-0.4142135623730951
  0
VERTEX
  5
143
  8
LAYER_1
 10
10.91249999999999
 20
23.18873203962438
 30
0.0
  0
VERTEX
  5
144
  8
LAYER_1
 10
10.91249999999999
 20
21.68873203962438
 30
0.0
 42
-0.4142135623730951
  0
SEQEND
  5
4D0
  8
LAYER_1
  0
POLYLINE
  5
82
  8
LAYER_1
 66
     1
 10
0.0
 20
0.0
 30
0.0
 70
     1
  0
VERTEX
  5
145
  8
LAYER_1
 10
2.931708639929234
 20
22.70236932427783
 30
0.0
 42
-0.4142135623730951
  0
VERTEX
  5
146
  8
LAYER_1
 10
2.681708639929234
 20
22.95236932427783
 30
0.0
 42
-0.4142135623730951
  0
VERTEX
  5
147
  8
LAYER_1
 10
2.931708639929234
 20
23.20236932427783
 30
0.0
  0
VERTEX
  5
148
  8
LAYER_1
 10
4.431708639929234
 20
23.20236932427783
 30
0.0
 42
-0.4142135623730951
  0
VERTEX
  5
149
  8
LAYER_1
 10
4.681708639929234
 20
22.95236932427783
 30
0.0
 42
-0.4142135623730951
  0
VERTEX
  5
14A
  8
LAYER_1
 10
4.431708639929234
 20
22.70236932427783
 30
0.0
  0
SEQEND
  5
4D1
  8
LAYER_1
  0
POLYLINE
  5
83
  8
LAYER_1
 66
     1
 10
0.0
 20
0.0
 30
0.0
 70
     1
  0
VERTEX
  5
14B
  8
LAYER_1
 10
2.931708639929234
 20
36.25904799862217
 30
0.0
 42
0.4142135623730951
  0
VERTEX
  5
14C
  8
LAYER_1
 10
2.681708639929234
 20
36.00904799862217
 30
0.0
 42
0.4142135623730951
  0
VERTEX
  5
14D
  8
LAYER_1
 10
2.931708639929234
 20
35.75904799862217
 30
0.0
  0
VERTEX
  5
14E
  8
LAYER_1
 10
4.431708639929234
 20
35.75904799862217
 30
0.0
 42
0.4142135623730951
  0
VERTEX
  5
14F
  8
LAYER_1
 10
4.681708639929234
 20
36.00904799862217
 30
0.0
 42
0.4142135623730951
  0
VERTEX
  5
150
  8
LAYER_1
 10
4.431708639929234
 20
36.25904799862217
 30
0.0
  0
SEQEND
  5
4D2
  8
LAYER_1
  0
POLYLINE
  5
84
  8
LAYER_1
 66
     1
 10
0.0
 20
0.0
 30
0.0
 70
     1
  0
VERTEX
  5
151
  8
LAYER_1
 10
13.34184980756408
 20
37.98121189907717
 30
0.0
 42
-0.4142135623730951
  0
VERTEX
  5
152
  8
LAYER_1
 10
13.59184980756408
 20
37.73121189907717
 30
0.0
 42
-0.4142135623730951
  0
VERTEX
  5
153
  8
LAYER_1
 10
13.34184980756408
 20
37.48121189907717
 30
0.0
  0
VERTEX
  5
154
  8
LAYER_1
 10
11.84184980756408
 20
37.48121189907717
 30
0.0
 42
-0.4142135623730951
  0
VERTEX
  5
155
  8
LAYER_1
 10
11.59184980756408
 20
37.73121189907717
 30
0.0
 42
-0.4142135623730951
  0
VERTEX
  5
156
  8
LAYER_1
 10
11.84184980756408
 20
37.98121189907717
 30
0.0
  0
SEQEND
  5
4D3
  8
LAYER_1
  0
POLYLINE
  5
85
  8
LAYER_1
 66
     1
 10
0.0
 20
0.0
 30
0.0
 70
     1
  0
VERTEX
  5
157
  8
LAYER_1
 10
10.66249999999999
 20
37.52268528327561
 30
0.0
 42
0.4142135623730951
  0
VERTEX
  5
158
  8
LAYER_1
 10
10.41249999999999
 20
37.27268528327561
 30
0.0
  0
VERTEX
  5
159
  8
LAYER_1
 10
10.41249999999999
 20
35.77268528327561
 30
0.0
 42
0.4142135623730951
  0
VERTEX
  5
15A
  8
LAYER_1
 10
10.66249999999999
 20
35.52268528327561
 30
0.0
 42
0.4142135623730951
  0
VERTEX
  5
15B
  8
LAYER_1
 10
10.91249999999999
 20
35.77268528327561
 30
0.0
  0
VERTEX
  5
15C
  8
LAYER_1
 10
10.91249999999999
 20
37.27268528327561
 30
0.0
 42
0.4142135623730951
  0
SEQEND
  5
4D4
  8
LAYER_1
  0
POLYLINE
  5
86
  8
LAYER_1
 66
     1
 10
0.0
 20
0.0
 30
0.0
 70
     1
  0
VERTEX
  5
15D
  8
LAYER_1
 10
17.76829136007077
 20
20.98020542382282
 30
0.0
 42
0.4142135623730951
  0
VERTEX
  5
15E
  8
LAYER_1
 10
18.01829136007077
 20
21.23020542382282
 30
0.0
 42
0.4142135623730951
  0
VERTEX
  5
15F
  8
LAYER_1
 10
17.76829136007077
 20
21.48020542382282
 30
0.0
  0
VERTEX
  5
160
  8
LAYER_1
 10
16.26829136007077
 20
21.48020542382282
 30
0.0
 42
0.4142135623730951
  0
VERTEX
  5
161
  8
LAYER_1
 10
16.01829136007077
 20
21.23020542382282
 30
0.0
 42
0.4142135623730951
  0
VERTEX
  5
162
  8
LAYER_1
 10
16.26829136007077
 20
20.98020542382282
 30
0.0
  0
SEQEND
  5
4D5
  8
LAYER_1
  0
POLYLINE
  5
87
  8
LAYER_1
 66
     1
 10
0.0
 20
0.0
 30
0.0
 70
     1
  0
VERTEX
  5
163
  8
LAYER_1
 10
7.35815019243593
 20
22.70236932427783
 30
0.0
 42
-0.4142135623730951
  0
VERTEX
  5
164
  8
LAYER_1
 10
7.10815019243593
 20
22.95236932427783
 30
0.0
 42
-0.4142135623730951
  0
VERTEX
  5
165
  8
LAYER_1
 10
7.35815019243593
 20
23.20236932427783
 30
0.0
  0
VERTEX
  5
166
  8
LAYER_1
 10
8.858150192435932
 20
23.20236932427783
 30
0.0
 42
-0.4142135623730951
  0
VERTEX
  5
167
  8
LAYER_1
 10
9.108150192435932
 20
22.95236932427783
 30
0.0
 42
-0.4142135623730951
  0
VERTEX
  5
168
  8
LAYER_1
 10
8.858150192435932
 20
22.70236932427783
 30
0.0
  0
SEQEND
  5
4D6
  8
LAYER_1
  0
POLYLINE
  5
88
  8
LAYER_1
 66
     1
 10
0.0
 20
0.0
 30
0.0
 70
     1
  0
VERTEX
  5
169
  8
LAYER_1
 10
17.76829136007077
 20
37.98121189907717
 30
0.0
 42
-0.4142135623730951
  0
VERTEX
  5
16A
  8
LAYER_1
 10
18.01829136007077
 20
37.73121189907717
 30
0.0
 42
-0.4142135623730951
  0
VERTEX
  5
16B
  8
LAYER_1
 10
17.76829136007077
 20
37.48121189907717
 30
0.0
  0
VERTEX
  5
16C
  8
LAYER_1
 10
16.26829136007077
 20
37.48121189907717
 30
0.0
 42
-0.4142135623730951
  0
VERTEX
  5
16D
  8
LAYER_1
 10
16.01829136007077
 20
37.73121189907717
 30
0.0
 42
-0.4142135623730951
  0
VERTEX
  5
16E
  8
LAYER_1
 10
16.26829136007077
 20
37.98121189907717
 30
0.0
  0
SEQEND
  5
4D7
  8
LAYER_1
  0
POLYLINE
  5
89
  8
LAYER_1
 66
     1
 10
0.0
 20
0.0
 30
0.0
 70
     1
  0
VERTEX
  5
16F
  8
LAYER_1
 10
7.35815019243593
 20
36.25904799862217
 30
0.0
 42
0.4142135623730951
  0
VERTEX
  5
170
  8
LAYER_1
 10
7.10815019243593
 20
36.00904799862217
 30
0.0
 42
0.4142135623730951
  0
VERTEX
  5
171
  8
LAYER_1
 10
7.35815019243593
 20
35.75904799862217
 30
0.0
  0
VERTEX
  5
172
  8
LAYER_1
 10
8.85815019243593
 20
35.75904799862217
 30
0.0
 42
0.4142135623730951
  0
VERTEX
  5
173
  8
LAYER_1
 10
9.10815019243593
 20
36.00904799862217
 30
0.0
 42
0.4142135623730951
  0
VERTEX
  5
174
  8
LAYER_1
 10
8.85815019243593
 20
36.25904799862217
 30
0.0
  0
SEQEND
  5
4D8
  8
LAYER_1
  0
POLYLINE
  5
8A
  8
LAYER_1
 66
     1
 10
0.0
 20
0.0
 30
0.0
 70
     1
  0
VERTEX
  5
175
  8
LAYER_1
 10
13.34184980756408
 20
20.98020542382282
 30
0.0
 42
0.4142135623730951
  0
VERTEX
  5
176
  8
LAYER_1
 10
13.59184980756408
 20
21.23020542382282
 30
0.0
 42
0.4142135623730951
  0
VERTEX
  5
177
  8
LAYER_1
 10
13.34184980756408
 20
21.48020542382282
 30
0.0
  0
VERTEX
  5
178
  8
LAYER_1
 10
11.84184980756408
 20
21.48020542382282
 30
0.0
 42
0.4142135623730951
  0
VERTEX
  5
179
  8
LAYER_1
 10
11.59184980756408
 20
21.23020542382282
 30
0.0
 42
0.4142135623730951
  0
VERTEX
  5
17A
  8
LAYER_1
 10
11.84184980756408
 20
20.98020542382282
 30
0.0
  0
SEQEND
  5
4D9
  8
LAYER_1
  0
POLYLINE
  5
8B
  8
LAYER_1
 66
     1
 10
0.0
 20
0.0
 30
0.0
 70
     1
  0
VERTEX
  5
17B
  8
LAYER_1
 10
25.27667322827
 20
14.88653543318
 30
0.0
 42
0.4142135623730944
  0
VERTEX
  5
17C
  8
LAYER_1
 10
20.75667322827
 20
10.36653543318
 30
0.0
 42
0.4142135623730944
  0
VERTEX
  5
17D
  8
LAYER_1
 10
25.27667322827
 20
5.846535433179994
 30
0.0
 42
0.4142135623730943
  0
VERTEX
  5
17E
  8
LAYER_1
 10
29.79667322827
 20
10.36653543318
 30
0.0
 42
0.4142135623730945
  0
SEQEND
  5
4DA
  8
LAYER_1
  0
POLYLINE
  5
8C
  8
LAYER_1
 66
     1
 10
0.0
 20
0.0
 30
0.0
 70
     1
  0
VERTEX
  5
17F
  8
LAYER_1
 10
32.45602303583409
 20
18.86703867080717
 30
0.0
 42
-0.4142135623730951
  0
VERTEX
  5
180
  8
LAYER_1
 10
32.70602303583409
 20
18.61703867080717
 30
0.0
 42
-0.4142135623730951
  0
VERTEX
  5
181
  8
LAYER_1
 10
32.45602303583409
 20
18.36703867080717
 30
0.0
  0
VERTEX
  5
182
  8
LAYER_1
 10
30.95602303583409
 20
18.36703867080717
 30
0.0
 42
-0.4142135623730951
  0
VERTEX
  5
183
  8
LAYER_1
 10
30.70602303583409
 20
18.61703867080717
 30
0.0
 42
-0.4142135623730951
  0
VERTEX
  5
184
  8
LAYER_1
 10
30.95602303583409
 20
18.86703867080717
 30
0.0
  0
SEQEND
  5
4DB
  8
LAYER_1
  0
POLYLINE
  5
8D
  8
LAYER_1
 66
     1
 10
0.0
 20
0.0
 30
0.0
 70
     1
  0
VERTEX
  5
185
  8
LAYER_1
 10
26.47232342070594
 20
3.588196096007827
 30
0.0
 42
-0.4142135623730951
  0
VERTEX
  5
186
  8
LAYER_1
 10
26.22232342070594
 20
3.838196096007827
 30
0.0
 42
-0.4142135623730951
  0
VERTEX
  5
187
  8
LAYER_1
 10
26.47232342070594
 20
4.088196096007827
 30
0.0
  0
VERTEX
  5
188
  8
LAYER_1
 10
27.97232342070594
 20
4.088196096007827
 30
0.0
 42
-0.4142135623730951
  0
VERTEX
  5
189
  8
LAYER_1
 10
28.22232342070594
 20
3.838196096007827
 30
0.0
 42
-0.4142135623730951
  0
VERTEX
  5
18A
  8
LAYER_1
 10
27.97232342070594
 20
3.588196096007827
 30
0.0
  0
SEQEND
  5
4DC
  8
LAYER_1
  0
POLYLINE
  5
8E
  8
LAYER_1
 66
     1
 10
0.0
 20
0.0
 30
0.0
 70
     1
  0
VERTEX
  5
18B
  8
LAYER_1
 10
32.45602303583409
 20
1.866032195552819
 30
0.0
 42
0.4142135623730951
  0
VERTEX
  5
18C
  8
LAYER_1
 10
32.70602303583409
 20
2.116032195552819
 30
0.0
 42
0.4142135623730951
  0
VERTEX
  5
18D
  8
LAYER_1
 10
32.45602303583409
 20
2.366032195552819
 30
0.0
  0
VERTEX
  5
18E
  8
LAYER_1
 10
30.95602303583409
 20
2.366032195552819
 30
0.0
 42
0.4142135623730951
  0
VERTEX
  5
18F
  8
LAYER_1
 10
30.70602303583409
 20
2.116032195552819
 30
0.0
 42
0.4142135623730951
  0
VERTEX
  5
190
  8
LAYER_1
 10
30.95602303583409
 20
1.866032195552819
 30
0.0
  0
SEQEND
  5
4DD
  8
LAYER_1
  0
POLYLINE
  5
8F
  8
LAYER_1
 66
     1
 10
0.0
 20
0.0
 30
0.0
 70
     1
  0
VERTEX
  5
191
  8
LAYER_1
 10
29.77667322827
 20
18.40851205500561
 30
0.0
 42
0.4142135623730951
  0
VERTEX
  5
192
  8
LAYER_1
 10
29.52667322827
 20
18.15851205500561
 30
0.0
  0
VERTEX
  5
193
  8
LAYER_1
 10
29.52667322827
 20
16.65851205500561
 30
0.0
 42
0.4142135623730951
  0
VERTEX
  5
194
  8
LAYER_1
 10
29.77667322827
 20
16.40851205500561
 30
0.0
 42
0.4142135623730951
  0
VERTEX
  5
195
  8
LAYER_1
 10
30.02667322827
 20
16.65851205500561
 30
0.0
  0
VERTEX
  5
196
  8
LAYER_1
 10
30.02667322827
 20
18.15851205500561
 30
0.0
 42
0.4142135623730951
  0
SEQEND
  5
4DE
  8
LAYER_1
  0
POLYLINE
  5
90
  8
LAYER_1
 66
     1
 10
0.0
 20
0.0
 30
0.0
 70
     1
  0
VERTEX
  5
197
  8
LAYER_1
 10
22.04588186819924
 20
17.14487477035217
 30
0.0
 42
0.4142135623730951
  0
VERTEX
  5
198
  8
LAYER_1
 10
21.79588186819924
 20
16.89487477035217
 30
0.0
 42
0.4142135623730951
  0
VERTEX
  5
199
  8
LAYER_1
 10
22.04588186819924
 20
16.64487477035217
 30
0.0
  0
VERTEX
  5
19A
  8
LAYER_1
 10
23.54588186819924
 20
16.64487477035217
 30
0.0
 42
0.4142135623730951
  0
VERTEX
  5
19B
  8
LAYER_1
 10
23.79588186819924
 20
16.89487477035217
 30
0.0
 42
0.4142135623730951
  0
VERTEX
  5
19C
  8
LAYER_1
 10
23.54588186819924
 20
17.14487477035217
 30
0.0
  0
SEQEND
  5
4DF
  8
LAYER_1
  0
POLYLINE
  5
91
  8
LAYER_1
 66
     1
 10
0.0
 20
0.0
 30
0.0
 70
     1
  0
VERTEX
  5
19D
  8
LAYER_1
 10
22.04588186819924
 20
3.588196096007827
 30
0.0
 42
-0.4142135623730951
  0
VERTEX
  5
19E
  8
LAYER_1
 10
21.79588186819924
 20
3.838196096007827
 30
0.0
 42
-0.4142135623730951
  0
VERTEX
  5
19F
  8
LAYER_1
 10
22.04588186819924
 20
4.088196096007827
 30
0.0
  0
VERTEX
  5
1A0
  8
LAYER_1
 10
23.54588186819924
 20
4.088196096007827
 30
0.0
 42
-0.4142135623730951
  0
VERTEX
  5
1A1
  8
LAYER_1
 10
23.79588186819924
 20
3.838196096007827
 30
0.0
 42
-0.4142135623730951
  0
VERTEX
  5
1A2
  8
LAYER_1
 10
23.54588186819924
 20
3.588196096007827
 30
0.0
  0
SEQEND
  5
4E0
  8
LAYER_1
  0
POLYLINE
  5
92
  8
LAYER_1
 66
     1
 10
0.0
 20
0.0
 30
0.0
 70
     1
  0
VERTEX
  5
1A3
  8
LAYER_1
 10
29.77667322827
 20
2.324558811354386
 30
0.0
 42
-0.4142135623730951
  0
VERTEX
  5
1A4
  8
LAYER_1
 10
29.52667322827
 20
2.574558811354386
 30
0.0
  0
VERTEX
  5
1A5
  8
LAYER_1
 10
29.52667322827
 20
4.074558811354386
 30
0.0
 42
-0.4142135623730951
  0
VERTEX
  5
1A6
  8
LAYER_1
 10
29.77667322827
 20
4.324558811354386
 30
0.0
 42
-0.4142135623730951
  0
VERTEX
  5
1A7
  8
LAYER_1
 10
30.02667322827
 20
4.074558811354386
 30
0.0
  0
VERTEX
  5
1A8
  8
LAYER_1
 10
30.02667322827
 20
2.574558811354386
 30
0.0
 42
-0.4142135623730951
  0
SEQEND
  5
4E1
  8
LAYER_1
  0
POLYLINE
  5
93
  8
LAYER_1
 66
     1
 10
0.0
 20
0.0
 30
0.0
 70
     1
  0
VERTEX
  5
1A9
  8
LAYER_1
 10
26.47232342070594
 20
17.14487477035217
 30
0.0
 42
0.4142135623730951
  0
VERTEX
  5
1AA
  8
LAYER_1
 10
26.22232342070594
 20
16.89487477035217
 30
0.0
 42
0.4142135623730951
  0
VERTEX
  5
1AB
  8
LAYER_1
 10
26.47232342070594
 20
16.64487477035217
 30
0.0
  0
VERTEX
  5
1AC
  8
LAYER_1
 10
27.97232342070594
 20
16.64487477035217
 30
0.0
 42
0.4142135623730951
  0
VERTEX
  5
1AD
  8
LAYER_1
 10
28.22232342070594
 20
16.89487477035217
 30
0.0
 42
0.4142135623730951
  0
VERTEX
  5
1AE
  8
LAYER_1
 10
27.97232342070594
 20
17.14487477035217
 30
0.0
  0
SEQEND
  5
4E2
  8
LAYER_1
  0
POLYLINE
  5
94
  8
LAYER_1
 66
     1
 10
0.0
 20
0.0
 30
0.0
 70
     1
  0
VERTEX
  5
1AF
  8
LAYER_1
 10
36.88246458834078
 20
1.866032195552819
 30
0.0
 42
0.4142135623730951
  0
VERTEX
  5
1B0
  8
LAYER_1
 10
37.13246458834078
 20
2.116032195552819
 30
0.0
 42
0.4142135623730951
  0
VERTEX
  5
1B1
  8
LAYER_1
 10
36.88246458834078
 20
2.366032195552819
 30
0.0
  0
VERTEX
  5
1B2
  8
LAYER_1
 10
35.38246458834078
 20
2.366032195552819
 30
0.0
 42
0.4142135623730951
  0
VERTEX
  5
1B3
  8
LAYER_1
 10
35.13246458834078
 20
2.116032195552819
 30
0.0
 42
0.4142135623730951
  0
VERTEX
  5
1B4
  8
LAYER_1
 10
35.38246458834078
 20
1.866032195552819
 30
0.0
  0
SEQEND
  5
4E3
  8
LAYER_1
  0
POLYLINE
  5
95
  8
LAYER_1
 66
     1
 10
0.0
 20
0.0
 30
0.0
 70
     1
  0
VERTEX
  5
1B5
  8
LAYER_1
 10
36.88246458834078
 20
18.86703867080717
 30
0.0
 42
-0.4142135623730951
  0
VERTEX
  5
1B6
  8
LAYER_1
 10
37.13246458834078
 20
18.61703867080717
 30
0.0
 42
-0.4142135623730951
  0
VERTEX
  5
1B7
  8
LAYER_1
 10
36.88246458834078
 20
18.36703867080717
 30
0.0
  0
VERTEX
  5
1B8
  8
LAYER_1
 10
35.38246458834078
 20
18.36703867080717
 30
0.0
 42
-0.4142135623730951
  0
VERTEX
  5
1B9
  8
LAYER_1
 10
35.13246458834078
 20
18.61703867080717
 30
0.0
 42
-0.4142135623730951
  0
VERTEX
  5
1BA
  8
LAYER_1
 10
35.38246458834078
 20
18.86703867080717
 30
0.0
  0
SEQEND
  5
4E4
  8
LAYER_1
  0
POLYLINE
  5
96
  8
LAYER_1
 66
     1
 10
0.0
 20
0.0
 30
0.0
 70
     1
  0
VERTEX
  5
1BB
  8
LAYER_1
 10
20.27667322827001
 20
38.66820866145
 30
0.0
  0
VERTEX
  5
1BC
  8
LAYER_1
 10
20.27667322827001
 20
20.29320866145
 30
0.0
  0
VERTEX
  5
1BD
  8
LAYER_1
 10
38.65167322827001
 20
20.29320866145
 30
0.0
  0
VERTEX
  5
1BE
  8
LAYER_1
 10
38.65167322827001
 20
38.66820866145
 30
0.0
  0
SEQEND
  5
4E5
  8
LAYER_1
  0
POLYLINE
  5
97
  8
LAYER_1
 66
     1
 10
0.0
 20
0.0
 30
0.0
 70
     1
  0
VERTEX
  5
1BF
  8
LAYER_1
 10
25.27667322827
 20
34.00070866145
 30
0.0
 42
0.4142135623730944
  0
VERTEX
  5
1C0
  8
LAYER_1
 10
20.75667322827
 20
29.48070866145
 30
0.0
 42
0.4142135623730944
  0
VERTEX
  5
1C1
  8
LAYER_1
 10
25.27667322827
 20
24.96070866144999
 30
0.0
 42
0.4142135623730943
  0
VERTEX
  5
1C2
  8
LAYER_1
 10
29.79667322827
 20
29.48070866145
 30
0.0
 42
0.4142135623730945
  0
SEQEND
  5
4E6
  8
LAYER_1
  0
POLYLINE
  5
98
  8
LAYER_1
 66
     1
 10
0.0
 20
0.0
 30
0.0
 70
     1
  0
VERTEX
  5
1C3
  8
LAYER_1
 10
32.45602303583409
 20
37.98121189907717
 30
0.0
 42
-0.4142135623730951
  0
VERTEX
  5
1C4
  8
LAYER_1
 10
32.70602303583409
 20
37.73121189907717
 30
0.0
 42
-0.4142135623730951
  0
VERTEX
  5
1C5
  8
LAYER_1
 10
32.45602303583409
 20
37.48121189907717
 30
0.0
  0
VERTEX
  5
1C6
  8
LAYER_1
 10
30.95602303583409
 20
37.48121189907717
 30
0.0
 42
-0.4142135623730951
  0
VERTEX
  5
1C7
  8
LAYER_1
 10
30.70602303583409
 20
37.73121189907717
 30
0.0
 42
-0.4142135623730951
  0
VERTEX
  5
1C8
  8
LAYER_1
 10
30.95602303583409
 20
37.98121189907717
 30
0.0
  0
SEQEND
  5
4E7
  8
LAYER_1
  0
POLYLINE
  5
99
  8
LAYER_1
 66
     1
 10
0.0
 20
0.0
 30
0.0
 70
     1
  0
VERTEX
  5
1C9
  8
LAYER_1
 10
26.47232342070594
 20
22.70236932427783
 30
0.0
 42
-0.4142135623730951
  0
VERTEX
  5
1CA
  8
LAYER_1
 10
26.22232342070594
 20
22.95236932427783
 30
0.0
 42
-0.4142135623730951
  0
VERTEX
  5
1CB
  8
LAYER_1
 10
26.47232342070594
 20
23.20236932427783
 30
0.0
  0
VERTEX
  5
1CC
  8
LAYER_1
 10
27.97232342070594
 20
23.20236932427783
 30
0.0
 42
-0.4142135623730951
  0
VERTEX
  5
1CD
  8
LAYER_1
 10
28.22232342070594
 20
22.95236932427783
 30
0.0
 42
-0.4142135623730951
  0
VERTEX
  5
1CE
  8
LAYER_1
 10
27.97232342070594
 20
22.70236932427783
 30
0.0
  0
SEQEND
  5
4E8
  8
LAYER_1
  0
POLYLINE
  5
9A
  8
LAYER_1
 66
     1
 10
0.0
 20
0.0
 30
0.0
 70
     1
  0
VERTEX
  5
1CF
  8
LAYER_1
 10
32.45602303583409
 20
20.98020542382282
 30
0.0
 42
0.4142135623730951
  0
VERTEX
  5
1D0
  8
LAYER_1
 10
32.70602303583409
 20
21.23020542382282
 30
0.0
 42
0.4142135623730951
  0
VERTEX
  5
1D1
  8
LAYER_1
 10
32.45602303583409
 20
21.48020542382282
 30
0.0
  0
VERTEX
  5
1D2
  8
LAYER_1
 10
30.95602303583409
 20
21.48020542382282
 30
0.0
 42
0.4142135623730951
  0
VERTEX
  5
1D3
  8
LAYER_1
 10
30.70602303583409
 20
21.23020542382282
 30
0.0
 42
0.4142135623730951
  0
VERTEX
  5
1D4
  8
LAYER_1
 10
30.95602303583409
 20
20.98020542382282
 30
0.0
  0
SEQEND
  5
4E9
  8
LAYER_1
  0
POLYLINE
  5
9B
  8
LAYER_1
 66
     1
 10
0.0
 20
0.0
 30
0.0
 70
     1
  0
VERTEX
  5
1D5
  8
LAYER_1
 10
29.77667322827
 20
37.52268528327561
 30
0.0
 42
0.4142135623730951
  0
VERTEX
  5
1D6
  8
LAYER_1
 10
29.52667322827
 20
37.27268528327561
 30
0.0
  0
VERTEX
  5
1D7
  8
LAYER_1
 10
29.52667322827
 20
35.77268528327561
 30
0.0
 42
0.4142135623730951
  0
VERTEX
  5
1D8
  8
LAYER_1
 10
29.77667322827
 20
35.52268528327561
 30
0.0
 42
0.4142135623730951
  0
VERTEX
  5
1D9
  8
LAYER_1
 10
30.02667322827
 20
35.77268528327561
 30
0.0
  0
VERTEX
  5
1DA
  8
LAYER_1
 10
30.02667322827
 20
37.27268528327561
 30
0.0
 42
0.4142135623730951
  0
SEQEND
  5
4EA
  8
LAYER_1
  0
POLYLINE
  5
9C
  8
LAYER_1
 66
     1
 10
0.0
 20
0.0
 30
0.0
 70
     1
  0
VERTEX
  5
1DB
  8
LAYER_1
 10
22.04588186819924
 20
36.25904799862217
 30
0.0
 42
0.4142135623730951
  0
VERTEX
  5
1DC
  8
LAYER_1
 10
21.79588186819924
 20
36.00904799862217
 30
0.0
 42
0.4142135623730951
  0
VERTEX
  5
1DD
  8
LAYER_1
 10
22.04588186819924
 20
35.75904799862217
 30
0.0
  0
VERTEX
  5
1DE
  8
LAYER_1
 10
23.54588186819924
 20
35.75904799862217
 30
0.0
 42
0.4142135623730951
  0
VERTEX
  5
1DF
  8
LAYER_1
 10
23.79588186819924
 20
36.00904799862217
 30
0.0
 42
0.4142135623730951
  0
VERTEX
  5
1E0
  8
LAYER_1
 10
23.54588186819924
 20
36.25904799862217
 30
0.0
  0
SEQEND
  5
4EB
  8
LAYER_1
  0
POLYLINE
  5
9D
  8
LAYER_1
 66
     1
 10
0.0
 20
0.0
 30
0.0
 70
     1
  0
VERTEX
  5
1E1
  8
LAYER_1
 10
22.04588186819924
 20
22.70236932427783
 30
0.0
 42
-0.4142135623730951
  0
VERTEX
  5
1E2
  8
LAYER_1
 10
21.79588186819924
 20
22.95236932427783
 30
0.0
 42
-0.4142135623730951
  0
VERTEX
  5
1E3
  8
LAYER_1
 10
22.04588186819924
 20
23.20236932427783
 30
0.0
  0
VERTEX
  5
1E4
  8
LAYER_1
 10
23.54588186819924
 20
23.20236932427783
 30
0.0
 42
-0.4142135623730951
  0
VERTEX
  5
1E5
  8
LAYER_1
 10
23.79588186819924
 20
22.95236932427783
 30
0.0
 42
-0.4142135623730951
  0
VERTEX
  5
1E6
  8
LAYER_1
 10
23.54588186819924
 20
22.70236932427783
 30
0.0
  0
SEQEND
  5
4EC
  8
LAYER_1
  0
POLYLINE
  5
9E
  8
LAYER_1
 66
     1
 10
0.0
 20
0.0
 30
0.0
 70
     1
  0
VERTEX
  5
1E7
  8
LAYER_1
 10
29.77667322827
 20
21.43873203962438
 30
0.0
 42
-0.4142135623730951
  0
VERTEX
  5
1E8
  8
LAYER_1
 10
29.52667322827
 20
21.68873203962438
 30
0.0
  0
VERTEX
  5
1E9
  8
LAYER_1
 10
29.52667322827
 20
23.18873203962438
 30
0.0
 42
-0.4142135623730951
  0
VERTEX
  5
1EA
  8
LAYER_1
 10
29.77667322827
 20
23.43873203962438
 30
0.0
 42
-0.4142135623730951
  0
VERTEX
  5
1EB
  8
LAYER_1
 10
30.02667322827
 20
23.18873203962438
 30
0.0
  0
VERTEX
  5
1EC
  8
LAYER_1
 10
30.02667322827
 20
21.68873203962438
 30
0.0
 42
-0.4142135623730951
  0
SEQEND
  5
4ED
  8
LAYER_1
  0
POLYLINE
  5
9F
  8
LAYER_1
 66
     1
 10
0.0
 20
0.0
 30
0.0
 70
     1
  0
VERTEX
  5
1ED
  8
LAYER_1
 10
26.47232342070594
 20
36.25904799862217
 30
0.0
 42
0.4142135623730951
  0
VERTEX
  5
1EE
  8
LAYER_1
 10
26.22232342070594
 20
36.00904799862217
 30
0.0
 42
0.4142135623730951
  0
VERTEX
  5
1EF
  8
LAYER_1
 10
26.47232342070594
 20
35.75904799862217
 30
0.0
  0
VERTEX
  5
1F0
  8
LAYER_1
 10
27.97232342070594
 20
35.75904799862217
 30
0.0
 42
0.4142135623730951
  0
VERTEX
  5
1F1
  8
LAYER_1
 10
28.22232342070594
 20
36.00904799862217
 30
0.0
 42
0.4142135623730951
  0
VERTEX
  5
1F2
  8
LAYER_1
 10
27.97232342070594
 20
36.25904799862217
 30
0.0
  0
SEQEND
  5
4EE
  8
LAYER_1
  0
POLYLINE
  5
A0
  8
LAYER_1
 66
     1
 10
0.0
 20
0.0
 30
0.0
 70
     1
  0
VERTEX
  5
1F3
  8
LAYER_1
 10
36.88246458834078
 20
20.98020542382282
 30
0.0
 42
0.4142135623730951
  0
VERTEX
  5
1F4
  8
LAYER_1
 10
37.13246458834078
 20
21.23020542382282
 30
0.0
 42
0.4142135623730951
  0
VERTEX
  5
1F5
  8
LAYER_1
 10
36.88246458834078
 20
21.48020542382282
 30
0.0
  0
VERTEX
  5
1F6
  8
LAYER_1
 10
35.38246458834078
 20
21.48020542382282
 30
0.0
 42
0.4142135623730951
  0
VERTEX
  5
1F7
  8
LAYER_1
 10
35.13246458834078
 20
21.23020542382282
 30
0.0
 42
0.4142135623730951
  0
VERTEX
  5
1F8
  8
LAYER_1
 10
35.38246458834078
 20
20.98020542382282
 30
0.0
  0
SEQEND
  5
4EF
  8
LAYER_1
  0
POLYLINE
  5
A1
  8
LAYER_1
 66
     1
 10
0.0
 20
0.0
 30
0.0
 70
     1
  0
VERTEX
  5
1F9
  8
LAYER_1
 10
36.88246458834078
 20
37.98121189907717
 30
0.0
 42
-0.4142135623730951
  0
VERTEX
  5
1FA
  8
LAYER_1
 10
37.13246458834078
 20
37.73121189907717
 30
0.0
 42
-0.4142135623730951
  0
VERTEX
  5
1FB
  8
LAYER_1
 10
36.88246458834078
 20
37.48121189907717
 30
0.0
  0
VERTEX
  5
1FC
  8
LAYER_1
 10
35.38246458834078
 20
37.48121189907717
 30
0.0
 42
-0.4142135623730951
  0
VERTEX
  5
1FD
  8
LAYER_1
 10
35.13246458834078
 20
37.73121189907717
 30
0.0
 42
-0.4142135623730951
  0
VERTEX
  5
1FE
  8
LAYER_1
 10
35.38246458834078
 20
37.98121189907717
 30
0.0
  0
SEQEND
  5
4F0
  8
LAYER_1
  0
POLYLINE
  5
A2
  8
LAYER_1
 66
     1
 10
0.0
 20
0.0
 30
0.0
 70
     1
  0
VERTEX
  5
1FF
  8
LAYER_1
 10
39.39084645654
 20
19.55403543318
 30
0.0
  0
VERTEX
  5
200
  8
LAYER_1
 10
39.39084645654
 20
1.179035433180001
 30
0.0
  0
VERTEX
  5
201
  8
LAYER_1
 10
57.76584645654
 20
1.179035433180005
 30
0.0
  0
VERTEX
  5
202
  8
LAYER_1
 10
57.76584645654
 20
19.55403543318
 30
0.0
  0
SEQEND
  5
4F1
  8
LAYER_1
  0
POLYLINE
  5
A3
  8
LAYER_1
 66
     1
 10
0.0
 20
0.0
 30
0.0
 70
     1
  0
VERTEX
  5
203
  8
LAYER_1
 10
55.99663781661077
 20
1.866032195552826
 30
0.0
 42
0.4142135623730951
  0
VERTEX
  5
204
  8
LAYER_1
 10
56.24663781661077
 20
2.116032195552826
 30
0.0
 42
0.4142135623730951
  0
VERTEX
  5
205
  8
LAYER_1
 10
55.99663781661077
 20
2.366032195552826
 30
0.0
  0
VERTEX
  5
206
  8
LAYER_1
 10
54.49663781661077
 20
2.366032195552826
 30
0.0
 42
0.4142135623730951
  0
VERTEX
  5
207
  8
LAYER_1
 10
54.24663781661077
 20
2.116032195552826
 30
0.0
 42
0.4142135623730951
  0
VERTEX
  5
208
  8
LAYER_1
 10
54.49663781661077
 20
1.866032195552826
 30
0.0
  0
SEQEND
  5
4F2
  8
LAYER_1
  0
POLYLINE
  5
A4
  8
LAYER_1
 66
     1
 10
0.0
 20
0.0
 30
0.0
 70
     1
  0
VERTEX
  5
209
  8
LAYER_1
 10
48.89084645653999
 20
2.324558811354393
 30
0.0
 42
-0.4142135623730951
  0
VERTEX
  5
20A
  8
LAYER_1
 10
48.64084645653999
 20
2.574558811354393
 30
0.0
  0
VERTEX
  5
20B
  8
LAYER_1
 10
48.64084645653999
 20
4.074558811354393
 30
0.0
 42
-0.4142135623730951
  0
VERTEX
  5
20C
  8
LAYER_1
 10
48.89084645653999
 20
4.324558811354393
 30
0.0
 42
-0.4142135623730951
  0
VERTEX
  5
20D
  8
LAYER_1
 10
49.14084645653999
 20
4.074558811354393
 30
0.0
  0
VERTEX
  5
20E
  8
LAYER_1
 10
49.14084645653999
 20
2.574558811354393
 30
0.0
 42
-0.4142135623730951
  0
SEQEND
  5
4F3
  8
LAYER_1
  0
POLYLINE
  5
A5
  8
LAYER_1
 66
     1
 10
0.0
 20
0.0
 30
0.0
 70
     1
  0
VERTEX
  5
20F
  8
LAYER_1
 10
48.89084645653999
 20
18.40851205500562
 30
0.0
 42
0.4142135623730951
  0
VERTEX
  5
210
  8
LAYER_1
 10
48.64084645653999
 20
18.15851205500562
 30
0.0
  0
VERTEX
  5
211
  8
LAYER_1
 10
48.64084645653999
 20
16.65851205500562
 30
0.0
 42
0.4142135623730951
  0
VERTEX
  5
212
  8
LAYER_1
 10
48.89084645653999
 20
16.40851205500562
 30
0.0
 42
0.4142135623730951
  0
VERTEX
  5
213
  8
LAYER_1
 10
49.14084645653999
 20
16.65851205500562
 30
0.0
  0
VERTEX
  5
214
  8
LAYER_1
 10
49.14084645653999
 20
18.15851205500562
 30
0.0
 42
0.4142135623730951
  0
SEQEND
  5
4F4
  8
LAYER_1
  0
POLYLINE
  5
A6
  8
LAYER_1
 66
     1
 10
0.0
 20
0.0
 30
0.0
 70
     1
  0
VERTEX
  5
215
  8
LAYER_1
 10
51.57019626410408
 20
18.86703867080718
 30
0.0
 42
-0.4142135623730951
  0
VERTEX
  5
216
  8
LAYER_1
 10
51.82019626410408
 20
18.61703867080718
 30
0.0
 42
-0.4142135623730951
  0
VERTEX
  5
217
  8
LAYER_1
 10
51.57019626410408
 20
18.36703867080718
 30
0.0
  0
VERTEX
  5
218
  8
LAYER_1
 10
50.07019626410408
 20
18.36703867080718
 30
0.0
 42
-0.4142135623730951
  0
VERTEX
  5
219
  8
LAYER_1
 10
49.82019626410408
 20
18.61703867080718
 30
0.0
 42
-0.4142135623730951
  0
VERTEX
  5
21A
  8
LAYER_1
 10
50.07019626410408
 20
18.86703867080718
 30
0.0
  0
SEQEND
  5
4F5
  8
LAYER_1
  0
POLYLINE
  5
A7
  8
LAYER_1
 66
     1
 10
0.0
 20
0.0
 30
0.0
 70
     1
  0
VERTEX
  5
21B
  8
LAYER_1
 10
45.58649664897594
 20
17.14487477035217
 30
0.0
 42
0.4142135623730951
  0
VERTEX
  5
21C
  8
LAYER_1
 10
45.33649664897594
 20
16.89487477035217
 30
0.0
 42
0.4142135623730951
  0
VERTEX
  5
21D
  8
LAYER_1
 10
45.58649664897594
 20
16.64487477035217
 30
0.0
  0
VERTEX
  5
21E
  8
LAYER_1
 10
47.08649664897594
 20
16.64487477035217
 30
0.0
 42
0.4142135623730951
  0
VERTEX
  5
21F
  8
LAYER_1
 10
47.33649664897594
 20
16.89487477035217
 30
0.0
 42
0.4142135623730951
  0
VERTEX
  5
220
  8
LAYER_1
 10
47.08649664897594
 20
17.14487477035217
 30
0.0
  0
SEQEND
  5
4F6
  8
LAYER_1
  0
POLYLINE
  5
A8
  8
LAYER_1
 66
     1
 10
0.0
 20
0.0
 30
0.0
 70
     1
  0
VERTEX
  5
221
  8
LAYER_1
 10
41.16005509646924
 20
17.14487477035217
 30
0.0
 42
0.4142135623730951
  0
VERTEX
  5
222
  8
LAYER_1
 10
40.91005509646924
 20
16.89487477035217
 30
0.0
 42
0.4142135623730951
  0
VERTEX
  5
223
  8
LAYER_1
 10
41.16005509646924
 20
16.64487477035217
 30
0.0
  0
VERTEX
  5
224
  8
LAYER_1
 10
42.66005509646924
 20
16.64487477035217
 30
0.0
 42
0.4142135623730951
  0
VERTEX
  5
225
  8
LAYER_1
 10
42.91005509646924
 20
16.89487477035217
 30
0.0
 42
0.4142135623730951
  0
VERTEX
  5
226
  8
LAYER_1
 10
42.66005509646924
 20
17.14487477035217
 30
0.0
  0
SEQEND
  5
4F7
  8
LAYER_1
  0
POLYLINE
  5
A9
  8
LAYER_1
 66
     1
 10
0.0
 20
0.0
 30
0.0
 70
     1
  0
VERTEX
  5
227
  8
LAYER_1
 10
41.16005509646924
 20
3.588196096007831
 30
0.0
 42
-0.4142135623730951
  0
VERTEX
  5
228
  8
LAYER_1
 10
40.91005509646924
 20
3.838196096007831
 30
0.0
 42
-0.4142135623730951
  0
VERTEX
  5
229
  8
LAYER_1
 10
41.16005509646924
 20
4.088196096007831
 30
0.0
  0
VERTEX
  5
22A
  8
LAYER_1
 10
42.66005509646924
 20
4.088196096007831
 30
0.0
 42
-0.4142135623730951
  0
VERTEX
  5
22B
  8
LAYER_1
 10
42.91005509646924
 20
3.838196096007831
 30
0.0
 42
-0.4142135623730951
  0
VERTEX
  5
22C
  8
LAYER_1
 10
42.66005509646924
 20
3.588196096007831
 30
0.0
  0
SEQEND
  5
4F8
  8
LAYER_1
  0
POLYLINE
  5
AA
  8
LAYER_1
 66
     1
 10
0.0
 20
0.0
 30
0.0
 70
     1
  0
VERTEX
  5
22D
  8
LAYER_1
 10
55.99663781661077
 20
18.86703867080718
 30
0.0
 42
-0.4142135623730951
  0
VERTEX
  5
22E
  8
LAYER_1
 10
56.24663781661077
 20
18.61703867080718
 30
0.0
 42
-0.4142135623730951
  0
VERTEX
  5
22F
  8
LAYER_1
 10
55.99663781661077
 20
18.36703867080718
 30
0.0
  0
VERTEX
  5
230
  8
LAYER_1
 10
54.49663781661077
 20
18.36703867080718
 30
0.0
 42
-0.4142135623730951
  0
VERTEX
  5
231
  8
LAYER_1
 10
54.24663781661077
 20
18.61703867080718
 30
0.0
 42
-0.4142135623730951
  0
VERTEX
  5
232
  8
LAYER_1
 10
54.49663781661077
 20
18.86703867080718
 30
0.0
  0
SEQEND
  5
4F9
  8
LAYER_1
  0
POLYLINE
  5
AB
  8
LAYER_1
 66
     1
 10
0.0
 20
0.0
 30
0.0
 70
     1
  0
VERTEX
  5
233
  8
LAYER_1
 10
51.57019626410408
 20
1.866032195552826
 30
0.0
 42
0.4142135623730951
  0
VERTEX
  5
234
  8
LAYER_1
 10
51.82019626410408
 20
2.116032195552826
 30
0.0
 42
0.4142135623730951
  0
VERTEX
  5
235
  8
LAYER_1
 10
51.57019626410408
 20
2.366032195552826
 30
0.0
  0
VERTEX
  5
236
  8
LAYER_1
 10
50.07019626410408
 20
2.366032195552826
 30
0.0
 42
0.4142135623730951
  0
VERTEX
  5
237
  8
LAYER_1
 10
49.82019626410408
 20
2.116032195552826
 30
0.0
 42
0.4142135623730951
  0
VERTEX
  5
238
  8
LAYER_1
 10
50.07019626410408
 20
1.866032195552826
 30
0.0
  0
SEQEND
  5
4FA
  8
LAYER_1
  0
POLYLINE
  5
AC
  8
LAYER_1
 66
     1
 10
0.0
 20
0.0
 30
0.0
 70
     1
  0
VERTEX
  5
239
  8
LAYER_1
 10
45.58649664897594
 20
3.588196096007831
 30
0.0
 42
-0.4142135623730951
  0
VERTEX
  5
23A
  8
LAYER_1
 10
45.33649664897594
 20
3.838196096007831
 30
0.0
 42
-0.4142135623730951
  0
VERTEX
  5
23B
  8
LAYER_1
 10
45.58649664897594
 20
4.088196096007831
 30
0.0
  0
VERTEX
  5
23C
  8
LAYER_1
 10
47.08649664897594
 20
4.088196096007831
 30
0.0
 42
-0.4142135623730951
  0
VERTEX
  5
23D
  8
LAYER_1
 10
47.33649664897594
 20
3.838196096007831
 30
0.0
 42
-0.4142135623730951
  0
VERTEX
  5
23E
  8
LAYER_1
 10
47.08649664897594
 20
3.588196096007831
 30
0.0
  0
SEQEND
  5
4FB
  8
LAYER_1
  0
POLYLINE
  5
AD
  8
LAYER_1
 66
     1
 10
0.0
 20
0.0
 30
0.0
 70
     1
  0
VERTEX
  5
23F
  8
LAYER_1
 10
39.39084645654
 20
38.66820866145
 30
0.0
  0
VERTEX
  5
240
  8
LAYER_1
 10
39.39084645654
 20
20.29320866145
 30
0.0
  0
VERTEX
  5
241
  8
LAYER_1
 10
57.76584645654
 20
20.29320866145001
 30
0.0
  0
VERTEX
  5
242
  8
LAYER_1
 10
57.76584645654
 20
38.66820866145001
 30
0.0
  0
SEQEND
  5
4FC
  8
LAYER_1
  0
POLYLINE
  5
AE
  8
LAYER_1
 66
     1
 10
0.0
 20
0.0
 30
0.0
 70
     1
  0
VERTEX
  5
243
  8
LAYER_1
 10
55.99663781661077
 20
20.98020542382283
 30
0.0
 42
0.4142135623730951
  0
VERTEX
  5
244
  8
LAYER_1
 10
56.24663781661077
 20
21.23020542382283
 30
0.0
 42
0.4142135623730951
  0
VERTEX
  5
245
  8
LAYER_1
 10
55.99663781661077
 20
21.48020542382283
 30
0.0
  0
VERTEX
  5
246
  8
LAYER_1
 10
54.49663781661077
 20
21.48020542382283
 30
0.0
 42
0.4142135623730951
  0
VERTEX
  5
247
  8
LAYER_1
 10
54.24663781661077
 20
21.23020542382283
 30
0.0
 42
0.4142135623730951
  0
VERTEX
  5
248
  8
LAYER_1
 10
54.49663781661077
 20
20.98020542382283
 30
0.0
  0
SEQEND
  5
4FD
  8
LAYER_1
  0
POLYLINE
  5
AF
  8
LAYER_1
 66
     1
 10
0.0
 20
0.0
 30
0.0
 70
     1
  0
VERTEX
  5
249
  8
LAYER_1
 10
48.89084645653999
 20
21.43873203962439
 30
0.0
 42
-0.4142135623730951
  0
VERTEX
  5
24A
  8
LAYER_1
 10
48.64084645653999
 20
21.68873203962439
 30
0.0
  0
VERTEX
  5
24B
  8
LAYER_1
 10
48.64084645653999
 20
23.18873203962439
 30
0.0
 42
-0.4142135623730951
  0
VERTEX
  5
24C
  8
LAYER_1
 10
48.89084645653999
 20
23.43873203962439
 30
0.0
 42
-0.4142135623730951
  0
VERTEX
  5
24D
  8
LAYER_1
 10
49.14084645653999
 20
23.18873203962439
 30
0.0
  0
VERTEX
  5
24E
  8
LAYER_1
 10
49.14084645653999
 20
21.68873203962439
 30
0.0
 42
-0.4142135623730951
  0
SEQEND
  5
4FE
  8
LAYER_1
  0
POLYLINE
  5
B0
  8
LAYER_1
 66
     1
 10
0.0
 20
0.0
 30
0.0
 70
     1
  0
VERTEX
  5
24F
  8
LAYER_1
 10
48.89084645653999
 20
37.52268528327561
 30
0.0
 42
0.4142135623730951
  0
VERTEX
  5
250
  8
LAYER_1
 10
48.64084645653999
 20
37.27268528327561
 30
0.0
  0
VERTEX
  5
251
  8
LAYER_1
 10
48.64084645653999
 20
35.77268528327562
 30
0.0
 42
0.4142135623730951
  0
VERTEX
  5
252
  8
LAYER_1
 10
48.89084645653999
 20
35.52268528327562
 30
0.0
 42
0.4142135623730951
  0
VERTEX
  5
253
  8
LAYER_1
 10
49.14084645653999
 20
35.77268528327562
 30
0.0
  0
VERTEX
  5
254
  8
LAYER_1
 10
49.14084645653999
 20
37.27268528327561
 30
0.0
 42
0.4142135623730951
  0
SEQEND
  5
4FF
  8
LAYER_1
  0
POLYLINE
  5
B1
  8
LAYER_1
 66
     1
 10
0.0
 20
0.0
 30
0.0
 70
     1
  0
VERTEX
  5
255
  8
LAYER_1
 10
51.57019626410408
 20
37.98121189907718
 30
0.0
 42
-0.4142135623730951
  0
VERTEX
  5
256
  8
LAYER_1
 10
51.82019626410408
 20
37.73121189907718
 30
0.0
 42
-0.4142135623730951
  0
VERTEX
  5
257
  8
LAYER_1
 10
51.57019626410408
 20
37.48121189907718
 30
0.0
  0
VERTEX
  5
258
  8
LAYER_1
 10
50.07019626410408
 20
37.48121189907717
 30
0.0
 42
-0.4142135623730951
  0
VERTEX
  5
259
  8
LAYER_1
 10
49.82019626410408
 20
37.73121189907717
 30
0.0
 42
-0.4142135623730951
  0
VERTEX
  5
25A
  8
LAYER_1
 10
50.07019626410408
 20
37.98121189907717
 30
0.0
  0
SEQEND
  5
500
  8
LAYER_1
  0
POLYLINE
  5
B2
  8
LAYER_1
 66
     1
 10
0.0
 20
0.0
 30
0.0
 70
     1
  0
VERTEX
  5
25B
  8
LAYER_1
 10
45.58649664897593
 20
36.25904799862218
 30
0.0
 42
0.4142135623730951
  0
VERTEX
  5
25C
  8
LAYER_1
 10
45.33649664897593
 20
36.00904799862218
 30
0.0
 42
0.4142135623730951
  0
VERTEX
  5
25D
  8
LAYER_1
 10
45.58649664897593
 20
35.75904799862218
 30
0.0
  0
VERTEX
  5
25E
  8
LAYER_1
 10
47.08649664897593
 20
35.75904799862218
 30
0.0
 42
0.4142135623730951
  0
VERTEX
  5
25F
  8
LAYER_1
 10
47.33649664897593
 20
36.00904799862218
 30
0.0
 42
0.4142135623730951
  0
VERTEX
  5
260
  8
LAYER_1
 10
47.08649664897593
 20
36.25904799862218
 30
0.0
  0
SEQEND
  5
501
  8
LAYER_1
  0
POLYLINE
  5
B3
  8
LAYER_1
 66
     1
 10
0.0
 20
0.0
 30
0.0
 70
     1
  0
VERTEX
  5
261
  8
LAYER_1
 10
41.16005509646924
 20
36.25904799862218
 30
0.0
 42
0.4142135623730951
  0
VERTEX
  5
262
  8
LAYER_1
 10
40.91005509646924
 20
36.00904799862218
 30
0.0
 42
0.4142135623730951
  0
VERTEX
  5
263
  8
LAYER_1
 10
41.16005509646924
 20
35.75904799862218
 30
0.0
  0
VERTEX
  5
264
  8
LAYER_1
 10
42.66005509646924
 20
35.75904799862218
 30
0.0
 42
0.4142135623730951
  0
VERTEX
  5
265
  8
LAYER_1
 10
42.91005509646924
 20
36.00904799862218
 30
0.0
 42
0.4142135623730951
  0
VERTEX
  5
266
  8
LAYER_1
 10
42.66005509646924
 20
36.25904799862218
 30
0.0
  0
SEQEND
  5
502
  8
LAYER_1
  0
POLYLINE
  5
B4
  8
LAYER_1
 66
     1
 10
0.0
 20
0.0
 30
0.0
 70
     1
  0
VERTEX
  5
267
  8
LAYER_1
 10
41.16005509646924
 20
22.70236932427783
 30
0.0
 42
-0.4142135623730951
  0
VERTEX
  5
268
  8
LAYER_1
 10
40.91005509646924
 20
22.95236932427783
 30
0.0
 42
-0.4142135623730951
  0
VERTEX
  5
269
  8
LAYER_1
 10
41.16005509646924
 20
23.20236932427783
 30
0.0
  0
VERTEX
  5
26A
  8
LAYER_1
 10
42.66005509646924
 20
23.20236932427783
 30
0.0
 42
-0.4142135623730951
  0
VERTEX
  5
26B
  8
LAYER_1
 10
42.91005509646924
 20
22.95236932427783
 30
0.0
 42
-0.4142135623730951
  0
VERTEX
  5
26C
  8
LAYER_1
 10
42.66005509646924
 20
22.70236932427783
 30
0.0
  0
SEQEND
  5
503
  8
LAYER_1
  0
POLYLINE
  5
B5
  8
LAYER_1
 66
     1
 10
0.0
 20
0.0
 30
0.0
 70
     1
  0
VERTEX
  5
26D
  8
LAYER_1
 10
55.99663781661077
 20
37.98121189907718
 30
0.0
 42
-0.4142135623730951
  0
VERTEX
  5
26E
  8
LAYER_1
 10
56.24663781661077
 20
37.73121189907718
 30
0.0
 42
-0.4142135623730951
  0
VERTEX
  5
26F
  8
LAYER_1
 10
55.99663781661077
 20
37.48121189907718
 30
0.0
  0
VERTEX
  5
270
  8
LAYER_1
 10
54.49663781661077
 20
37.48121189907718
 30
0.0
 42
-0.4142135623730951
  0
VERTEX
  5
271
  8
LAYER_1
 10
54.24663781661077
 20
37.73121189907718
 30
0.0
 42
-0.4142135623730951
  0
VERTEX
  5
272
  8
LAYER_1
 10
54.49663781661077
 20
37.98121189907718
 30
0.0
  0
SEQEND
  5
504
  8
LAYER_1
  0
POLYLINE
  5
B6
  8
LAYER_1
 66
     1
 10
0.0
 20
0.0
 30
0.0
 70
     1
  0
VERTEX
  5
273
  8
LAYER_1
 10
51.57019626410408
 20
20.98020542382283
 30
0.0
 42
0.4142135623730951
  0
VERTEX
  5
274
  8
LAYER_1
 10
51.82019626410408
 20
21.23020542382283
 30
0.0
 42
0.4142135623730951
  0
VERTEX
  5
275
  8
LAYER_1
 10
51.57019626410408
 20
21.48020542382283
 30
0.0
  0
VERTEX
  5
276
  8
LAYER_1
 10
50.07019626410408
 20
21.48020542382283
 30
0.0
 42
0.4142135623730951
  0
VERTEX
  5
277
  8
LAYER_1
 10
49.82019626410408
 20
21.23020542382283
 30
0.0
 42
0.4142135623730951
  0
VERTEX
  5
278
  8
LAYER_1
 10
50.07019626410408
 20
20.98020542382283
 30
0.0
  0
SEQEND
  5
505
  8
LAYER_1
  0
POLYLINE
  5
B7
  8
LAYER_1
 66
     1
 10
0.0
 20
0.0
 30
0.0
 70
     1
  0
VERTEX
  5
279
  8
LAYER_1
 10
45.58649664897593
 20
22.70236932427783
 30
0.0
 42
-0.4142135623730951
  0
VERTEX
  5
27A
  8
LAYER_1
 10
45.33649664897593
 20
22.95236932427783
 30
0.0
 42
-0.4142135623730951
  0
VERTEX
  5
27B
  8
LAYER_1
 10
45.58649664897593
 20
23.20236932427783
 30
0.0
  0
VERTEX
  5
27C
  8
LAYER_1
 10
47.08649664897593
 20
23.20236932427783
 30
0.0
 42
-0.4142135623730951
  0
VERTEX
  5
27D
  8
LAYER_1
 10
47.33649664897593
 20
22.95236932427783
 30
0.0
 42
-0.4142135623730951
  0
VERTEX
  5
27E
  8
LAYER_1
 10
47.08649664897593
 20
22.70236932427783
 30
0.0
  0
SEQEND
  5
506
  8
LAYER_1
  0
POLYLINE
  5
B8
  8
LAYER_1
 66
     1
 10
0.0
 20
0.0
 30
0.0
 70
     1
  0
VERTEX
  5
27F
  8
LAYER_1
 10
58.50501968481004
 20
18.15851205500559
 30
0.0
  0
VERTEX
  5
280
  8
LAYER_1
 10
58.50501968481004
 20
16.65851205500562
 30
0.0
  0
VERTEX
  5
281
  8
LAYER_1
 10
58.75501968481004
 20
16.65851205500562
 30
0.0
  0
VERTEX
  5
282
  8
LAYER_1
 10
58.75501968481004
 20
4.0745588113544
 30
0.0
  0
VERTEX
  5
283
  8
LAYER_1
 10
58.50501968481001
 20
4.074558811354898
 30
0.0
  0
VERTEX
  5
284
  8
LAYER_1
 10
58.50501968481001
 20
2.574558811354471
 30
0.0
  0
VERTEX
  5
285
  8
LAYER_1
 10
58.75501968481004
 20
2.574558811354684
 30
0.0
  0
VERTEX
  5
286
  8
LAYER_1
 10
58.75501968481004
 20
1.179035433180012
 30
0.0
  0
VERTEX
  5
287
  8
LAYER_1
 10
68.25501968481002
 20
1.179035433180012
 30
0.0
  0
VERTEX
  5
288
  8
LAYER_1
 10
68.25501968481002
 20
2.5745588113544
 30
0.0
  0
VERTEX
  5
289
  8
LAYER_1
 10
68.75501968481002
 20
2.5745588113544
 30
0.0
  0
VERTEX
  5
28A
  8
LAYER_1
 10
68.75501968481002
 20
4.074558811354684
 30
0.0
  0
VERTEX
  5
28B
  8
LAYER_1
 10
68.25501968481002
 20
4.074558811354684
 30
0.0
  0
VERTEX
  5
28C
  8
LAYER_1
 10
68.25501968481002
 20
16.65851205500563
 30
0.0
  0
VERTEX
  5
28D
  8
LAYER_1
 10
68.75501968481002
 20
16.65851205500563
 30
0.0
  0
VERTEX
  5
28E
  8
LAYER_1
 10
68.75501968481004
 20
18.15851205500563
 30
0.0
  0
VERTEX
  5
28F
  8
LAYER_1
 10
68.25501968481004
 20
18.15851205500557
 30
0.0
  0
VERTEX
  5
290
  8
LAYER_1
 10
68.25501968481004
 20
19.55403543318
 30
0.0
  0
VERTEX
  5
291
  8
LAYER_1
 10
58.75501968481004
 20
19.55403543318
 30
0.0
  0
VERTEX
  5
292
  8
LAYER_1
 10
58.75501968481004
 20
18.15851205500562
 30
0.0
  0
SEQEND
  5
507
  8
LAYER_1
  0
POLYLINE
  5
B9
  8
LAYER_1
 66
     1
 10
0.0
 20
0.0
 30
0.0
 70
     1
  0
VERTEX
  5
293
  8
LAYER_1
 10
58.50501968481003
 20
37.2726852832756
 30
0.0
  0
VERTEX
  5
294
  8
LAYER_1
 10
58.50501968481003
 20
35.77268528327563
 30
0.0
  0
VERTEX
  5
295
  8
LAYER_1
 10
58.75501968481003
 20
35.77268528327563
 30
0.0
  0
VERTEX
  5
296
  8
LAYER_1
 10
58.75501968481004
 20
23.1887320396244
 30
0.0
  0
VERTEX
  5
297
  8
LAYER_1
 10
58.50501968481001
 20
23.1887320396249
 30
0.0
  0
VERTEX
  5
298
  8
LAYER_1
 10
58.50501968481001
 20
21.68873203962448
 30
0.0
  0
VERTEX
  5
299
  8
LAYER_1
 10
58.75501968481004
 20
21.68873203962469
 30
0.0
  0
VERTEX
  5
29A
  8
LAYER_1
 10
58.75501968481004
 20
20.29320866145002
 30
0.0
  0
VERTEX
  5
29B
  8
LAYER_1
 10
68.25501968481002
 20
20.29320866145002
 30
0.0
  0
VERTEX
  5
29C
  8
LAYER_1
 10
68.25501968481002
 20
21.6887320396244
 30
0.0
  0
VERTEX
  5
29D
  8
LAYER_1
 10
68.75501968481002
 20
21.6887320396244
 30
0.0
  0
VERTEX
  5
29E
  8
LAYER_1
 10
68.75501968481002
 20
23.18873203962469
 30
0.0
  0
VERTEX
  5
29F
  8
LAYER_1
 10
68.25501968481002
 20
23.18873203962469
 30
0.0
  0
VERTEX
  5
2A0
  8
LAYER_1
 10
68.25501968481001
 20
35.77268528327564
 30
0.0
  0
VERTEX
  5
2A1
  8
LAYER_1
 10
68.75501968481001
 20
35.77268528327564
 30
0.0
  0
VERTEX
  5
2A2
  8
LAYER_1
 10
68.75501968481004
 20
37.27268528327564
 30
0.0
  0
VERTEX
  5
2A3
  8
LAYER_1
 10
68.25501968481004
 20
37.27268528327558
 30
0.0
  0
VERTEX
  5
2A4
  8
LAYER_1
 10
68.25501968481004
 20
38.66820866145001
 30
0.0
  0
VERTEX
  5
2A5
  8
LAYER_1
 10
58.75501968481003
 20
38.66820866145
 30
0.0
  0
VERTEX
  5
2A6
  8
LAYER_1
 10
58.75501968481003
 20
37.27268528327563
 30
0.0
  0
SEQEND
  5
508
  8
LAYER_1
  0
POLYLINE
  5
BA
  8
LAYER_1
 66
     1
 10
0.0
 20
0.0
 30
0.0
 70
     1
  0
VERTEX
  5
2A7
  8
LAYER_1
 10
78.18464566902001
 20
14.32372047257001
 30
0.0
  0
VERTEX
  5
2A8
  8
LAYER_1
 10
76.41543702909078
 20
14.32372047257001
 30
0.0
  0
VERTEX
  5
2A9
  8
LAYER_1
 10
76.41543702909078
 20
14.57372047257001
 30
0.0
  0
VERTEX
  5
2AA
  8
LAYER_1
 10
74.91543702909071
 20
14.57372047257001
 30
0.0
  0
VERTEX
  5
2AB
  8
LAYER_1
 10
74.91543702909078
 20
14.32372047257001
 30
0.0
  0
VERTEX
  5
2AC
  8
LAYER_1
 10
71.98899547658401
 20
14.32372047257001
 30
0.0
  0
VERTEX
  5
2AD
  8
LAYER_1
 10
71.98899547658405
 20
14.57372047257001
 30
0.0
  0
VERTEX
  5
2AE
  8
LAYER_1
 10
70.4889954765841
 20
14.57372047257001
 30
0.0
  0
VERTEX
  5
2AF
  8
LAYER_1
 10
70.48899547658412
 20
14.32372047257001
 30
0.0
  0
VERTEX
  5
2B0
  8
LAYER_1
 10
68.99714566902001
 20
14.32372047257001
 30
0.0
  0
VERTEX
  5
2B1
  8
LAYER_1
 10
68.99714566902001
 20
4.82372047257001
 30
0.0
  0
VERTEX
  5
2B2
  8
LAYER_1
 10
70.48899547658414
 20
4.82372047257001
 30
0.0
  0
VERTEX
  5
2B3
  8
LAYER_1
 10
70.48899547658412
 20
4.323720472570017
 30
0.0
  0
VERTEX
  5
2B4
  8
LAYER_1
 10
71.98899547658401
 20
4.323720472570017
 30
0.0
  0
VERTEX
  5
2B5
  8
LAYER_1
 10
71.98899547658397
 20
4.82372047257001
 30
0.0
  0
VERTEX
  5
2B6
  8
LAYER_1
 10
74.91543702909078
 20
4.82372047257001
 30
0.0
  0
VERTEX
  5
2B7
  8
LAYER_1
 10
74.91543702909078
 20
4.323720472570017
 30
0.0
  0
VERTEX
  5
2B8
  8
LAYER_1
 10
76.41543702909078
 20
4.323720472570017
 30
0.0
  0
VERTEX
  5
2B9
  8
LAYER_1
 10
76.41543702909077
 20
4.82372047257001
 30
0.0
  0
VERTEX
  5
2BA
  8
LAYER_1
 10
78.18464566902001
 20
4.82372047257001
 30
0.0
  0
SEQEND
  5
509
  8
LAYER_1
  0
POLYLINE
  5
BB
  8
LAYER_1
 66
     1
 10
0.0
 20
0.0
 30
0.0
 70
     1
  0
VERTEX
  5
2BB
  8
LAYER_1
 10
78.18464566902001
 20
33.43789370084001
 30
0.0
  0
VERTEX
  5
2BC
  8
LAYER_1
 10
76.41543702909078
 20
33.43789370084001
 30
0.0
  0
VERTEX
  5
2BD
  8
LAYER_1
 10
76.41543702909078
 20
33.68789370084001
 30
0.0
  0
VERTEX
  5
2BE
  8
LAYER_1
 10
74.91543702909071
 20
33.68789370084001
 30
0.0
  0
VERTEX
  5
2BF
  8
LAYER_1
 10
74.91543702909078
 20
33.43789370084001
 30
0.0
  0
VERTEX
  5
2C0
  8
LAYER_1
 10
71.98899547658401
 20
33.43789370084001
 30
0.0
  0
VERTEX
  5
2C1
  8
LAYER_1
 10
71.98899547658405
 20
33.68789370084001
 30
0.0
  0
VERTEX
  5
2C2
  8
LAYER_1
 10
70.4889954765841
 20
33.68789370084001
 30
0.0
  0
VERTEX
  5
2C3
  8
LAYER_1
 10
70.48899547658412
 20
33.43789370084001
 30
0.0
  0
VERTEX
  5
2C4
  8
LAYER_1
 10
68.99714566902001
 20
33.43789370084001
 30
0.0
  0
VERTEX
  5
2C5
  8
LAYER_1
 10
68.99714566902001
 20
23.93789370084001
 30
0.0
  0
VERTEX
  5
2C6
  8
LAYER_1
 10
70.48899547658414
 20
23.93789370084001
 30
0.0
  0
VERTEX
  5
2C7
  8
LAYER_1
 10
70.48899547658412
 20
23.43789370084001
 30
0.0
  0
VERTEX
  5
2C8
  8
LAYER_1
 10
71.98899547658401
 20
23.43789370084001
 30
0.0
  0
VERTEX
  5
2C9
  8
LAYER_1
 10
71.98899547658397
 20
23.93789370084001
 30
0.0
  0
VERTEX
  5
2CA
  8
LAYER_1
 10
74.91543702909078
 20
23.93789370084001
 30
0.0
  0
VERTEX
  5
2CB
  8
LAYER_1
 10
74.91543702909078
 20
23.43789370084001
 30
0.0
  0
VERTEX
  5
2CC
  8
LAYER_1
 10
76.41543702909078
 20
23.43789370084001
 30
0.0
  0
VERTEX
  5
2CD
  8
LAYER_1
 10
76.41543702909077
 20
23.93789370084001
 30
0.0
  0
VERTEX
  5
2CE
  8
LAYER_1
 10
78.18464566902001
 20
23.93789370084001
 30
0.0
  0
SEQEND
  5
50A
  8
LAYER_1
  0
POLYLINE
  5
BC
  8
LAYER_1
 66
     1
 10
0.0
 20
0.0
 30
0.0
 70
     1
  0
VERTEX
  5
2CF
  8
LAYER_1
 10
78.67677165327
 20
44.42214566929999
 30
0.0
  0
VERTEX
  5
2D0
  8
LAYER_1
 10
76.90756301334076
 20
44.42214566929999
 30
0.0
  0
VERTEX
  5
2D1
  8
LAYER_1
 10
76.90756301334076
 20
44.67214566929999
 30
0.0
  0
VERTEX
  5
2D2
  8
LAYER_1
 10
75.40756301334069
 20
44.67214566929999
 30
0.0
  0
VERTEX
  5
2D3
  8
LAYER_1
 10
75.40756301334076
 20
44.42214566929999
 30
0.0
  0
VERTEX
  5
2D4
  8
LAYER_1
 10
72.48112146083399
 20
44.42214566929999
 30
0.0
  0
VERTEX
  5
2D5
  8
LAYER_1
 10
72.48112146083403
 20
44.67214566929999
 30
0.0
  0
VERTEX
  5
2D6
  8
LAYER_1
 10
70.98112146083407
 20
44.67214566929999
 30
0.0
  0
VERTEX
  5
2D7
  8
LAYER_1
 10
70.9811214608341
 20
44.42214566929999
 30
0.0
  0
VERTEX
  5
2D8
  8
LAYER_1
 10
69.48927165327
 20
44.4221456693
 30
0.0
  0
VERTEX
  5
2D9
  8
LAYER_1
 10
69.48927165327
 20
34.9221456693
 30
0.0
  0
VERTEX
  5
2DA
  8
LAYER_1
 10
70.98112146083412
 20
34.92214566929999
 30
0.0
  0
VERTEX
  5
2DB
  8
LAYER_1
 10
70.9811214608341
 20
34.42214566929999
 30
0.0
  0
VERTEX
  5
2DC
  8
LAYER_1
 10
72.48112146083399
 20
34.42214566929999
 30
0.0
  0
VERTEX
  5
2DD
  8
LAYER_1
 10
72.48112146083395
 20
34.92214566929999
 30
0.0
  0
VERTEX
  5
2DE
  8
LAYER_1
 10
75.40756301334076
 20
34.92214566929999
 30
0.0
  0
VERTEX
  5
2DF
  8
LAYER_1
 10
75.40756301334076
 20
34.42214566929999
 30
0.0
  0
VERTEX
  5
2E0
  8
LAYER_1
 10
76.90756301334076
 20
34.42214566929999
 30
0.0
  0
VERTEX
  5
2E1
  8
LAYER_1
 10
76.90756301334075
 20
34.92214566929999
 30
0.0
  0
VERTEX
  5
2E2
  8
LAYER_1
 10
78.67677165327
 20
34.92214566929999
 30
0.0
  0
SEQEND
  5
50B
  8
LAYER_1
  0
POLYLINE
  5
BD
  8
LAYER_1
 66
     1
 10
0.0
 20
0.0
 30
0.0
 70
     1
  0
VERTEX
  5
2E3
  8
LAYER_1
 10
88.1059055115
 20
11.17411417337001
 30
0.0
  0
VERTEX
  5
2E4
  8
LAYER_1
 10
86.33669687157077
 20
11.17411417337001
 30
0.0
  0
VERTEX
  5
2E5
  8
LAYER_1
 10
86.33669687157077
 20
11.42411417337001
 30
0.0
  0
VERTEX
  5
2E6
  8
LAYER_1
 10
84.8366968715707
 20
11.42411417337001
 30
0.0
  0
VERTEX
  5
2E7
  8
LAYER_1
 10
84.83669687157077
 20
11.17411417337001
 30
0.0
  0
VERTEX
  5
2E8
  8
LAYER_1
 10
81.91025531906399
 20
11.17411417337001
 30
0.0
  0
VERTEX
  5
2E9
  8
LAYER_1
 10
81.91025531906404
 20
11.42411417337001
 30
0.0
  0
VERTEX
  5
2EA
  8
LAYER_1
 10
80.41025531906408
 20
11.42411417337001
 30
0.0
  0
VERTEX
  5
2EB
  8
LAYER_1
 10
80.4102553190641
 20
11.17411417337001
 30
0.0
  0
VERTEX
  5
2EC
  8
LAYER_1
 10
78.9184055115
 20
11.17411417337001
 30
0.0
  0
VERTEX
  5
2ED
  8
LAYER_1
 10
78.9184055115
 20
1.674114173370015
 30
0.0
  0
VERTEX
  5
2EE
  8
LAYER_1
 10
80.41025531906412
 20
1.674114173370008
 30
0.0
  0
VERTEX
  5
2EF
  8
LAYER_1
 10
80.4102553190641
 20
1.174114173370008
 30
0.0
  0
VERTEX
  5
2F0
  8
LAYER_1
 10
81.91025531906399
 20
1.174114173370008
 30
0.0
  0
VERTEX
  5
2F1
  8
LAYER_1
 10
81.91025531906395
 20
1.674114173370008
 30
0.0
  0
VERTEX
  5
2F2
  8
LAYER_1
 10
84.83669687157077
 20
1.674114173370008
 30
0.0
  0
VERTEX
  5
2F3
  8
LAYER_1
 10
84.83669687157077
 20
1.174114173370008
 30
0.0
  0
VERTEX
  5
2F4
  8
LAYER_1
 10
86.33669687157077
 20
1.174114173370008
 30
0.0
  0
VERTEX
  5
2F5
  8
LAYER_1
 10
86.33669687157075
 20
1.674114173370008
 30
0.0
  0
VERTEX
  5
2F6
  8
LAYER_1
 10
88.1059055115
 20
1.674114173370008
 30
0.0
  0
SEQEND
  5
50C
  8
LAYER_1
  0
POLYLINE
  5
BE
  8
LAYER_1
 66
     1
 10
0.0
 20
0.0
 30
0.0
 70
     1
  0
VERTEX
  5
2F7
  8
LAYER_1
 10
79.88070669785958
 20
22.40836614183
 30
0.0
  0
VERTEX
  5
2F8
  8
LAYER_1
 10
79.88070669785958
 20
22.15836614183
 30
0.0
  0
VERTEX
  5
2F9
  8
LAYER_1
 10
78.9184055115
 20
22.15836614183
 30
0.0
  0
VERTEX
  5
2FA
  8
LAYER_1
 10
78.9184055115
 20
12.65836614183
 30
0.0
  0
VERTEX
  5
2FB
  8
LAYER_1
 10
79.88070669785958
 20
12.65836614183
 30
0.0
  0
VERTEX
  5
2FC
  8
LAYER_1
 10
79.88070669785958
 20
12.15836614183
 30
0.0
  0
VERTEX
  5
2FD
  8
LAYER_1
 10
81.38070669785964
 20
12.15836614183
 30
0.0
  0
VERTEX
  5
2FE
  8
LAYER_1
 10
81.38070669785958
 20
12.65836614183
 30
0.0
  0
VERTEX
  5
2FF
  8
LAYER_1
 10
84.30714825036637
 20
12.65836614183
 30
0.0
  0
VERTEX
  5
300
  8
LAYER_1
 10
84.30714825036628
 20
12.15836614183
 30
0.0
  0
VERTEX
  5
301
  8
LAYER_1
 10
85.80714825036627
 20
12.15836614183
 30
0.0
  0
VERTEX
  5
302
  8
LAYER_1
 10
85.80714825036624
 20
12.65836614183
 30
0.0
  0
VERTEX
  5
303
  8
LAYER_1
 10
87.29899805793032
 20
12.65836614183
 30
0.0
  0
VERTEX
  5
304
  8
LAYER_1
 10
87.29899805793033
 20
22.15836614182999
 30
0.0
  0
VERTEX
  5
305
  8
LAYER_1
 10
85.80714825036623
 20
22.15836614182999
 30
0.0
  0
VERTEX
  5
306
  8
LAYER_1
 10
85.80714825036623
 20
22.40836614182999
 30
0.0
  0
VERTEX
  5
307
  8
LAYER_1
 10
84.3071482503664
 20
22.40836614182999
 30
0.0
  0
VERTEX
  5
308
  8
LAYER_1
 10
84.3071482503664
 20
22.15836614182999
 30
0.0
  0
VERTEX
  5
309
  8
LAYER_1
 10
81.38070669785958
 20
22.15836614182999
 30
0.0
  0
VERTEX
  5
30A
  8
LAYER_1
 10
81.38070669785941
 20
22.40836614182999
 30
0.0
  0
SEQEND
  5
50D
  8
LAYER_1
  0
POLYLINE
  5
BF
  8
LAYER_1
 66
     1
 10
0.0
 20
0.0
 30
0.0
 70
     1
  0
VERTEX
  5
30B
  8
LAYER_1
 10
79.88070669785958
 20
33.39261811029
 30
0.0
  0
VERTEX
  5
30C
  8
LAYER_1
 10
79.88070669785958
 20
33.14261811029
 30
0.0
  0
VERTEX
  5
30D
  8
LAYER_1
 10
78.9184055115
 20
33.14261811029
 30
0.0
  0
VERTEX
  5
30E
  8
LAYER_1
 10
78.9184055115
 20
23.64261811029001
 30
0.0
  0
VERTEX
  5
30F
  8
LAYER_1
 10
79.88070669785958
 20
23.64261811029001
 30
0.0
  0
VERTEX
  5
310
  8
LAYER_1
 10
79.88070669785958
 20
23.14261811029001
 30
0.0
  0
VERTEX
  5
311
  8
LAYER_1
 10
81.38070669785964
 20
23.14261811029001
 30
0.0
  0
VERTEX
  5
312
  8
LAYER_1
 10
81.38070669785958
 20
23.64261811029001
 30
0.0
  0
VERTEX
  5
313
  8
LAYER_1
 10
84.30714825036637
 20
23.64261811029001
 30
0.0
  0
VERTEX
  5
314
  8
LAYER_1
 10
84.30714825036628
 20
23.14261811029001
 30
0.0
  0
VERTEX
  5
315
  8
LAYER_1
 10
85.80714825036627
 20
23.14261811029001
 30
0.0
  0
VERTEX
  5
316
  8
LAYER_1
 10
85.80714825036624
 20
23.64261811029001
 30
0.0
  0
VERTEX
  5
317
  8
LAYER_1
 10
87.29899805793032
 20
23.64261811029001
 30
0.0
  0
VERTEX
  5
318
  8
LAYER_1
 10
87.29899805793033
 20
33.14261811028999
 30
0.0
  0
VERTEX
  5
319
  8
LAYER_1
 10
85.80714825036623
 20
33.14261811028999
 30
0.0
  0
VERTEX
  5
31A
  8
LAYER_1
 10
85.80714825036623
 20
33.39261811028999
 30
0.0
  0
VERTEX
  5
31B
  8
LAYER_1
 10
84.3071482503664
 20
33.39261811028999
 30
0.0
  0
VERTEX
  5
31C
  8
LAYER_1
 10
84.3071482503664
 20
33.14261811028999
 30
0.0
  0
VERTEX
  5
31D
  8
LAYER_1
 10
81.38070669785958
 20
33.14261811028999
 30
0.0
  0
VERTEX
  5
31E
  8
LAYER_1
 10
81.38070669785941
 20
33.39261811028999
 30
0.0
  0
SEQEND
  5
50E
  8
LAYER_1
  0
POLYLINE
  5
C0
  8
LAYER_1
 66
     1
 10
0.0
 20
0.0
 30
0.0
 70
     1
  0
VERTEX
  5
31F
  8
LAYER_1
 10
80.37283268210957
 20
44.37687007875001
 30
0.0
  0
VERTEX
  5
320
  8
LAYER_1
 10
80.37283268210957
 20
44.12687007875001
 30
0.0
  0
VERTEX
  5
321
  8
LAYER_1
 10
79.41053149574999
 20
44.12687007875001
 30
0.0
  0
VERTEX
  5
322
  8
LAYER_1
 10
79.41053149574999
 20
34.62687007875001
 30
0.0
  0
VERTEX
  5
323
  8
LAYER_1
 10
80.37283268210957
 20
34.62687007875001
 30
0.0
  0
VERTEX
  5
324
  8
LAYER_1
 10
80.37283268210957
 20
34.12687007875002
 30
0.0
  0
VERTEX
  5
325
  8
LAYER_1
 10
81.87283268210963
 20
34.12687007875002
 30
0.0
  0
VERTEX
  5
326
  8
LAYER_1
 10
81.87283268210957
 20
34.62687007875001
 30
0.0
  0
VERTEX
  5
327
  8
LAYER_1
 10
84.79927423461636
 20
34.62687007875001
 30
0.0
  0
VERTEX
  5
328
  8
LAYER_1
 10
84.79927423461628
 20
34.12687007875002
 30
0.0
  0
VERTEX
  5
329
  8
LAYER_1
 10
86.29927423461626
 20
34.12687007875002
 30
0.0
  0
VERTEX
  5
32A
  8
LAYER_1
 10
86.29927423461623
 20
34.62687007875001
 30
0.0
  0
VERTEX
  5
32B
  8
LAYER_1
 10
87.79112404218031
 20
34.62687007875001
 30
0.0
  0
VERTEX
  5
32C
  8
LAYER_1
 10
87.79112404218033
 20
44.12687007875
 30
0.0
  0
VERTEX
  5
32D
  8
LAYER_1
 10
86.29927423461622
 20
44.12687007875
 30
0.0
  0
VERTEX
  5
32E
  8
LAYER_1
 10
86.29927423461622
 20
44.37687007875
 30
0.0
  0
VERTEX
  5
32F
  8
LAYER_1
 10
84.79927423461639
 20
44.37687007875
 30
0.0
  0
VERTEX
  5
330
  8
LAYER_1
 10
84.79927423461639
 20
44.12687007875
 30
0.0
  0
VERTEX
  5
331
  8
LAYER_1
 10
81.87283268210957
 20
44.12687007875
 30
0.0
  0
VERTEX
  5
332
  8
LAYER_1
 10
81.8728326821094
 20
44.37687007875
 30
0.0
  0
SEQEND
  5
50F
  8
LAYER_1
  0
POLYLINE
  5
C1
  8
LAYER_1
 66
     1
 10
0.0
 20
0.0
 30
0.0
 70
     1
  0
VERTEX
  5
333
  8
LAYER_1
 10
88.99487992616957
 20
21.68001968514
 30
0.0
  0
VERTEX
  5
334
  8
LAYER_1
 10
88.99487992616957
 20
21.43001968514
 30
0.0
  0
VERTEX
  5
335
  8
LAYER_1
 10
88.03257873980999
 20
21.43001968514
 30
0.0
  0
VERTEX
  5
336
  8
LAYER_1
 10
88.03257873980999
 20
11.93001968514
 30
0.0
  0
VERTEX
  5
337
  8
LAYER_1
 10
88.99487992616957
 20
11.93001968514
 30
0.0
  0
VERTEX
  5
338
  8
LAYER_1
 10
88.99487992616957
 20
11.43001968514001
 30
0.0
  0
VERTEX
  5
339
  8
LAYER_1
 10
90.49487992616963
 20
11.43001968514001
 30
0.0
  0
VERTEX
  5
33A
  8
LAYER_1
 10
90.49487992616957
 20
11.93001968514
 30
0.0
  0
VERTEX
  5
33B
  8
LAYER_1
 10
93.42132147867636
 20
11.93001968514
 30
0.0
  0
VERTEX
  5
33C
  8
LAYER_1
 10
93.42132147867628
 20
11.43001968514001
 30
0.0
  0
VERTEX
  5
33D
  8
LAYER_1
 10
94.92132147867626
 20
11.43001968514001
 30
0.0
  0
VERTEX
  5
33E
  8
LAYER_1
 10
94.92132147867623
 20
11.93001968514
 30
0.0
  0
VERTEX
  5
33F
  8
LAYER_1
 10
96.41317128624031
 20
11.93001968514
 30
0.0
  0
VERTEX
  5
340
  8
LAYER_1
 10
96.41317128624033
 20
21.43001968513999
 30
0.0
  0
VERTEX
  5
341
  8
LAYER_1
 10
94.92132147867622
 20
21.43001968513999
 30
0.0
  0
VERTEX
  5
342
  8
LAYER_1
 10
94.92132147867622
 20
21.68001968513999
 30
0.0
  0
VERTEX
  5
343
  8
LAYER_1
 10
93.42132147867639
 20
21.68001968513999
 30
0.0
  0
VERTEX
  5
344
  8
LAYER_1
 10
93.42132147867639
 20
21.43001968513999
 30
0.0
  0
VERTEX
  5
345
  8
LAYER_1
 10
90.49487992616957
 20
21.43001968513999
 30
0.0
  0
VERTEX
  5
346
  8
LAYER_1
 10
90.4948799261694
 20
21.68001968513999
 30
0.0
  0
SEQEND
  5
510
  8
LAYER_1
  0
POLYLINE
  5
C2
  8
LAYER_1
 66
     1
 10
0.0
 20
0.0
 30
0.0
 70
     1
  0
VERTEX
  5
347
  8
LAYER_1
 10
1.162499999999998
 20
39.65639763792186
 30
0.0
  0
VERTEX
  5
348
  8
LAYER_1
 10
2.558023378174372
 20
39.65639763792186
 30
0.0
  0
VERTEX
  5
349
  8
LAYER_1
 10
2.5580233781744
 20
39.40639763792186
 30
0.0
  0
VERTEX
  5
34A
  8
LAYER_1
 10
4.058023378174372
 20
39.40639763792186
 30
0.0
  0
VERTEX
  5
34B
  8
LAYER_1
 10
4.058023378174372
 20
39.65639763792186
 30
0.0
  0
VERTEX
  5
34C
  8
LAYER_1
 10
16.6419766218256
 20
39.65639763792186
 30
0.0
  0
VERTEX
  5
34D
  8
LAYER_1
 10
16.6419766218251
 20
39.40639763792183
 30
0.0
  0
VERTEX
  5
34E
  8
LAYER_1
 10
18.14197662182552
 20
39.40639763792183
 30
0.0
  0
VERTEX
  5
34F
  8
LAYER_1
 10
18.14197662182531
 20
39.65639763792186
 30
0.0
  0
VERTEX
  5
350
  8
LAYER_1
 10
19.53749999999998
 20
39.65639763786592
 30
0.0
  0
VERTEX
  5
351
  8
LAYER_1
 10
19.53749999999998
 20
42.65639763780999
 30
0.0
  0
VERTEX
  5
352
  8
LAYER_1
 10
18.1419766218256
 20
42.65639763780999
 30
0.0
  0
VERTEX
  5
353
  8
LAYER_1
 10
18.1419766218256
 20
43.15639763780999
 30
0.0
  0
VERTEX
  5
354
  8
LAYER_1
 10
16.64197662182531
 20
43.15639763780999
 30
0.0
  0
VERTEX
  5
355
  8
LAYER_1
 10
16.64197662182531
 20
42.65639763780999
 30
0.0
  0
VERTEX
  5
356
  8
LAYER_1
 10
4.058023378174372
 20
42.65639763780999
 30
0.0
  0
VERTEX
  5
357
  8
LAYER_1
 10
4.058023378174372
 20
43.15639763780999
 30
0.0
  0
VERTEX
  5
358
  8
LAYER_1
 10
2.558023378174372
 20
43.15639763781
 30
0.0
  0
VERTEX
  5
359
  8
LAYER_1
 10
2.558023378174429
 20
42.65639763781
 30
0.0
  0
VERTEX
  5
35A
  8
LAYER_1
 10
1.162499999999998
 20
42.65639763781
 30
0.0
  0
SEQEND
  5
511
  8
LAYER_1
  0
POLYLINE
  5
C3
  8
LAYER_1
 66
     1
 10
0.0
 20
0.0
 30
0.0
 70
     1
  0
VERTEX
  5
35B
  8
LAYER_1
 10
37.27372047236998
 20
46.39064960629997
 30
0.0
  0
VERTEX
  5
35C
  8
LAYER_1
 10
35.87819709419561
 20
46.39064960629997
 30
0.0
  0
VERTEX
  5
35D
  8
LAYER_1
 10
35.87819709419558
 20
46.64064960629997
 30
0.0
  0
VERTEX
  5
35E
  8
LAYER_1
 10
34.37819709419561
 20
46.64064960629997
 30
0.0
  0
VERTEX
  5
35F
  8
LAYER_1
 10
34.37819709419561
 20
46.39064960629997
 30
0.0
  0
VERTEX
  5
360
  8
LAYER_1
 10
21.79424385054438
 20
46.39064960629997
 30
0.0
  0
VERTEX
  5
361
  8
LAYER_1
 10
21.79424385054488
 20
46.64064960629999
 30
0.0
  0
VERTEX
  5
362
  8
LAYER_1
 10
20.29424385054445
 20
46.64064960629999
 30
0.0
  0
VERTEX
  5
363
  8
LAYER_1
 10
20.29424385054467
 20
46.39064960629997
 30
0.0
  0
VERTEX
  5
364
  8
LAYER_1
 10
18.89872047236999
 20
46.39064960635591
 30
0.0
  0
VERTEX
  5
365
  8
LAYER_1
 10
18.89872047236999
 20
43.39064960641184
 30
0.0
  0
VERTEX
  5
366
  8
LAYER_1
 10
20.29424385054438
 20
43.39064960641184
 30
0.0
  0
VERTEX
  5
367
  8
LAYER_1
 10
20.29424385054438
 20
42.89064960641184
 30
0.0
  0
VERTEX
  5
368
  8
LAYER_1
 10
21.79424385054466
 20
42.89064960641184
 30
0.0
  0
VERTEX
  5
369
  8
LAYER_1
 10
21.79424385054467
 20
43.39064960641184
 30
0.0
  0
VERTEX
  5
36A
  8
LAYER_1
 10
34.37819709419561
 20
43.39064960641184
 30
0.0
  0
VERTEX
  5
36B
  8
LAYER_1
 10
34.37819709419561
 20
42.89064960641184
 30
0.0
  0
VERTEX
  5
36C
  8
LAYER_1
 10
35.87819709419561
 20
42.89064960641183
 30
0.0
  0
VERTEX
  5
36D
  8
LAYER_1
 10
35.87819709419555
 20
43.39064960641183
 30
0.0
  0
VERTEX
  5
36E
  8
LAYER_1
 10
37.27372047236998
 20
43.39064960641183
 30
0.0
  0
SEQEND
  5
512
  8
LAYER_1
  0
POLYLINE
  5
C4
  8
LAYER_1
 66
     1
 10
0.0
 20
0.0
 30
0.0
 70
     1
  0
VERTEX
  5
36F
  8
LAYER_1
 10
36.61525590537
 20
39.65639763776327
 30
0.0
  0
VERTEX
  5
370
  8
LAYER_1
 10
38.38446454529923
 20
39.65639763776327
 30
0.0
  0
VERTEX
  5
371
  8
LAYER_1
 10
38.38446454529923
 20
39.40639763776327
 30
0.0
  0
VERTEX
  5
372
  8
LAYER_1
 10
39.8844645452993
 20
39.40639763776327
 30
0.0
  0
VERTEX
  5
373
  8
LAYER_1
 10
39.88446454529923
 20
39.65639763776327
 30
0.0
  0
VERTEX
  5
374
  8
LAYER_1
 10
42.810906097806
 20
39.65639763776327
 30
0.0
  0
VERTEX
  5
375
  8
LAYER_1
 10
42.81090609780596
 20
39.40639763776327
 30
0.0
  0
VERTEX
  5
376
  8
LAYER_1
 10
44.31090609780592
 20
39.40639763776327
 30
0.0
  0
VERTEX
  5
377
  8
LAYER_1
 10
44.31090609780589
 20
39.65639763776327
 30
0.0
  0
VERTEX
  5
378
  8
LAYER_1
 10
45.80275590537
 20
39.65639763778664
 30
0.0
  0
VERTEX
  5
379
  8
LAYER_1
 10
45.80275590537
 20
42.65639763781001
 30
0.0
  0
VERTEX
  5
37A
  8
LAYER_1
 10
44.31090609780588
 20
42.65639763781001
 30
0.0
  0
VERTEX
  5
37B
  8
LAYER_1
 10
44.31090609780589
 20
43.15639763781
 30
0.0
  0
VERTEX
  5
37C
  8
LAYER_1
 10
42.810906097806
 20
43.15639763781
 30
0.0
  0
VERTEX
  5
37D
  8
LAYER_1
 10
42.81090609780605
 20
42.65639763781001
 30
0.0
  0
VERTEX
  5
37E
  8
LAYER_1
 10
39.88446454529923
 20
42.65639763781001
 30
0.0
  0
VERTEX
  5
37F
  8
LAYER_1
 10
39.88446454529923
 20
43.15639763781
 30
0.0
  0
VERTEX
  5
380
  8
LAYER_1
 10
38.38446454529923
 20
43.15639763781
 30
0.0
  0
VERTEX
  5
381
  8
LAYER_1
 10
38.38446454529925
 20
42.65639763781001
 30
0.0
  0
VERTEX
  5
382
  8
LAYER_1
 10
36.61525590537
 20
42.65639763781001
 30
0.0
  0
SEQEND
  5
513
  8
LAYER_1
  0
POLYLINE
  5
C5
  8
LAYER_1
 66
     1
 10
0.0
 20
0.0
 30
0.0
 70
     1
  0
VERTEX
  5
383
  8
LAYER_1
 10
54.2476377951
 20
46.3906496063
 30
0.0
  0
VERTEX
  5
384
  8
LAYER_1
 10
52.47842915517077
 20
46.3906496063
 30
0.0
  0
VERTEX
  5
385
  8
LAYER_1
 10
52.47842915517077
 20
46.6406496063
 30
0.0
  0
VERTEX
  5
386
  8
LAYER_1
 10
50.97842915517069
 20
46.6406496063
 30
0.0
  0
VERTEX
  5
387
  8
LAYER_1
 10
50.97842915517077
 20
46.3906496063
 30
0.0
  0
VERTEX
  5
388
  8
LAYER_1
 10
48.05198760266399
 20
46.3906496063
 30
0.0
  0
VERTEX
  5
389
  8
LAYER_1
 10
48.05198760266403
 20
46.6406496063
 30
0.0
  0
VERTEX
  5
38A
  8
LAYER_1
 10
46.55198760266408
 20
46.6406496063
 30
0.0
  0
VERTEX
  5
38B
  8
LAYER_1
 10
46.55198760266411
 20
46.3906496063
 30
0.0
  0
VERTEX
  5
38C
  8
LAYER_1
 10
45.0601377951
 20
46.39064960627663
 30
0.0
  0
VERTEX
  5
38D
  8
LAYER_1
 10
45.0601377951
 20
43.39064960625326
 30
0.0
  0
VERTEX
  5
38E
  8
LAYER_1
 10
46.55198760266412
 20
43.39064960625326
 30
0.0
  0
VERTEX
  5
38F
  8
LAYER_1
 10
46.55198760266411
 20
42.89064960625327
 30
0.0
  0
VERTEX
  5
390
  8
LAYER_1
 10
48.05198760266399
 20
42.89064960625327
 30
0.0
  0
VERTEX
  5
391
  8
LAYER_1
 10
48.05198760266395
 20
43.39064960625326
 30
0.0
  0
VERTEX
  5
392
  8
LAYER_1
 10
50.97842915517077
 20
43.39064960625326
 30
0.0
  0
VERTEX
  5
393
  8
LAYER_1
 10
50.97842915517077
 20
42.89064960625327
 30
0.0
  0
VERTEX
  5
394
  8
LAYER_1
 10
52.47842915517077
 20
42.89064960625327
 30
0.0
  0
VERTEX
  5
395
  8
LAYER_1
 10
52.47842915517075
 20
43.39064960625326
 30
0.0
  0
VERTEX
  5
396
  8
LAYER_1
 10
54.2476377951
 20
43.39064960625326
 30
0.0
  0
SEQEND
  5
514
  8
LAYER_1
  0
POLYLINE
  5
C6
  8
LAYER_1
 66
     1
 10
0.0
 20
0.0
 30
0.0
 70
     1
  0
VERTEX
  5
397
  8
LAYER_1
 10
53.22942913365
 20
39.65639763776327
 30
0.0
  0
VERTEX
  5
398
  8
LAYER_1
 10
54.99863777357923
 20
39.65639763776327
 30
0.0
  0
VERTEX
  5
399
  8
LAYER_1
 10
54.99863777357923
 20
39.40639763776327
 30
0.0
  0
VERTEX
  5
39A
  8
LAYER_1
 10
56.4986377735793
 20
39.40639763776327
 30
0.0
  0
VERTEX
  5
39B
  8
LAYER_1
 10
56.49863777357923
 20
39.65639763776327
 30
0.0
  0
VERTEX
  5
39C
  8
LAYER_1
 10
59.42507932608601
 20
39.65639763776327
 30
0.0
  0
VERTEX
  5
39D
  8
LAYER_1
 10
59.42507932608596
 20
39.40639763776327
 30
0.0
  0
VERTEX
  5
39E
  8
LAYER_1
 10
60.92507932608592
 20
39.40639763776327
 30
0.0
  0
VERTEX
  5
39F
  8
LAYER_1
 10
60.92507932608589
 20
39.65639763776327
 30
0.0
  0
VERTEX
  5
3A0
  8
LAYER_1
 10
62.41692913364999
 20
39.65639763778664
 30
0.0
  0
VERTEX
  5
3A1
  8
LAYER_1
 10
62.41692913364999
 20
42.65639763781
 30
0.0
  0
VERTEX
  5
3A2
  8
LAYER_1
 10
60.92507932608588
 20
42.65639763781
 30
0.0
  0
VERTEX
  5
3A3
  8
LAYER_1
 10
60.92507932608589
 20
43.15639763781
 30
0.0
  0
VERTEX
  5
3A4
  8
LAYER_1
 10
59.42507932608601
 20
43.15639763781
 30
0.0
  0
VERTEX
  5
3A5
  8
LAYER_1
 10
59.42507932608605
 20
42.65639763781
 30
0.0
  0
VERTEX
  5
3A6
  8
LAYER_1
 10
56.49863777357923
 20
42.65639763781
 30
0.0
  0
VERTEX
  5
3A7
  8
LAYER_1
 10
56.49863777357923
 20
43.15639763781
 30
0.0
  0
VERTEX
  5
3A8
  8
LAYER_1
 10
54.99863777357923
 20
43.15639763781
 30
0.0
  0
VERTEX
  5
3A9
  8
LAYER_1
 10
54.99863777357925
 20
42.65639763781
 30
0.0
  0
VERTEX
  5
3AA
  8
LAYER_1
 10
53.22942913365
 20
42.65639763781
 30
0.0
  0
SEQEND
  5
515
  8
LAYER_1
  0
POLYLINE
  5
C7
  8
LAYER_1
 66
     1
 10
0.0
 20
0.0
 30
0.0
 70
     1
  0
VERTEX
  5
3AB
  8
LAYER_1
 10
88.28257873980999
 20
31.60127952762001
 30
0.0
  0
VERTEX
  5
3AC
  8
LAYER_1
 10
88.28257873980999
 20
29.83207088769078
 30
0.0
  0
VERTEX
  5
3AD
  8
LAYER_1
 10
88.03257873980999
 20
29.83207088769078
 30
0.0
  0
VERTEX
  5
3AE
  8
LAYER_1
 10
88.03257873980999
 20
28.3320708876907
 30
0.0
  0
VERTEX
  5
3AF
  8
LAYER_1
 10
88.28257873980999
 20
28.33207088769078
 30
0.0
  0
VERTEX
  5
3B0
  8
LAYER_1
 10
88.28257873980999
 20
25.405629335184
 30
0.0
  0
VERTEX
  5
3B1
  8
LAYER_1
 10
88.03257873980999
 20
25.40562933518405
 30
0.0
  0
VERTEX
  5
3B2
  8
LAYER_1
 10
88.03257873980999
 20
23.90562933518409
 30
0.0
  0
VERTEX
  5
3B3
  8
LAYER_1
 10
88.28257873980999
 20
23.90562933518412
 30
0.0
  0
VERTEX
  5
3B4
  8
LAYER_1
 10
88.28257873983337
 20
22.41377952762001
 30
0.0
  0
VERTEX
  5
3B5
  8
LAYER_1
 10
91.28257873985672
 20
22.41377952762001
 30
0.0
  0
VERTEX
  5
3B6
  8
LAYER_1
 10
91.28257873985672
 20
23.90562933518413
 30
0.0
  0
VERTEX
  5
3B7
  8
LAYER_1
 10
91.78257873985672
 20
23.90562933518412
 30
0.0
  0
VERTEX
  5
3B8
  8
LAYER_1
 10
91.78257873985672
 20
25.405629335184
 30
0.0
  0
VERTEX
  5
3B9
  8
LAYER_1
 10
91.28257873985672
 20
25.40562933518396
 30
0.0
  0
VERTEX
  5
3BA
  8
LAYER_1
 10
91.28257873985672
 20
28.33207088769078
 30
0.0
  0
VERTEX
  5
3BB
  8
LAYER_1
 10
91.78257873985672
 20
28.33207088769078
 30
0.0
  0
VERTEX
  5
3BC
  8
LAYER_1
 10
91.78257873985672
 20
29.83207088769078
 30
0.0
  0
VERTEX
  5
3BD
  8
LAYER_1
 10
91.28257873985672
 20
29.83207088769076
 30
0.0
  0
VERTEX
  5
3BE
  8
LAYER_1
 10
91.28257873985672
 20
31.60127952762001
 30
0.0
  0
SEQEND
  5
516
  8
LAYER_1
  0
POLYLINE
  5
C8
  8
LAYER_1
 66
     1
 10
0.0
 20
0.0
 30
0.0
 70
     1
  0
VERTEX
  5
3BF
  8
LAYER_1
 10
69.48927165327001
 20
15.81190944893004
 30
0.0
  0
VERTEX
  5
3C0
  8
LAYER_1
 10
70.45157283962959
 20
15.81190944893004
 30
0.0
  0
VERTEX
  5
3C1
  8
LAYER_1
 10
70.45157283962959
 20
15.31190944893004
 30
0.0
  0
VERTEX
  5
3C2
  8
LAYER_1
 10
71.95157283962965
 20
15.31190944893004
 30
0.0
  0
VERTEX
  5
3C3
  8
LAYER_1
 10
71.95157283962959
 20
15.81190944893004
 30
0.0
  0
VERTEX
  5
3C4
  8
LAYER_1
 10
74.87801439213638
 20
15.81190944893004
 30
0.0
  0
VERTEX
  5
3C5
  8
LAYER_1
 10
74.8780143921363
 20
15.31190944893004
 30
0.0
  0
VERTEX
  5
3C6
  8
LAYER_1
 10
76.37801439213628
 20
15.31190944893004
 30
0.0
  0
VERTEX
  5
3C7
  8
LAYER_1
 10
76.37801439213625
 20
15.81190944893004
 30
0.0
  0
VERTEX
  5
3C8
  8
LAYER_1
 10
77.86986419970033
 20
15.81190944893004
 30
0.0
  0
VERTEX
  5
3C9
  8
LAYER_1
 10
77.86986419970033
 20
18.81190944892999
 30
0.0
  0
VERTEX
  5
3CA
  8
LAYER_1
 10
76.37801439213622
 20
18.81190944892999
 30
0.0
  0
VERTEX
  5
3CB
  8
LAYER_1
 10
76.37801439213622
 20
19.06190944892999
 30
0.0
  0
VERTEX
  5
3CC
  8
LAYER_1
 10
74.8780143921364
 20
19.06190944892999
 30
0.0
  0
VERTEX
  5
3CD
  8
LAYER_1
 10
74.8780143921364
 20
18.81190944892999
 30
0.0
  0
VERTEX
  5
3CE
  8
LAYER_1
 10
71.95157283962958
 20
18.81190944892999
 30
0.0
  0
VERTEX
  5
3CF
  8
LAYER_1
 10
71.9515728396294
 20
19.06190944892999
 30
0.0
  0
VERTEX
  5
3D0
  8
LAYER_1
 10
70.45157283962958
 20
19.06190944893
 30
0.0
  0
VERTEX
  5
3D1
  8
LAYER_1
 10
70.45157283962958
 20
18.81190944893
 30
0.0
  0
VERTEX
  5
3D2
  8
LAYER_1
 10
69.48927165327
 20
18.81190944893
 30
0.0
  0
SEQEND
  5
517
  8
LAYER_1
  0
POLYLINE
  5
C9
  8
LAYER_1
 66
     1
 10
0.0
 20
0.0
 30
0.0
 70
     1
  0
VERTEX
  5
3D3
  8
LAYER_1
 10
91.77470472405996
 20
32.33486020949969
 30
0.0
  0
VERTEX
  5
3D4
  8
LAYER_1
 10
91.77470472405996
 20
33.29716139585927
 30
0.0
  0
VERTEX
  5
3D5
  8
LAYER_1
 10
92.27470472405996
 20
33.29716139585927
 30
0.0
  0
VERTEX
  5
3D6
  8
LAYER_1
 10
92.27470472405996
 20
34.79716139585933
 30
0.0
  0
VERTEX
  5
3D7
  8
LAYER_1
 10
91.77470472405996
 20
34.79716139585927
 30
0.0
  0
VERTEX
  5
3D8
  8
LAYER_1
 10
91.77470472405996
 20
37.72360294836606
 30
0.0
  0
VERTEX
  5
3D9
  8
LAYER_1
 10
92.27470472405996
 20
37.72360294836597
 30
0.0
  0
VERTEX
  5
3DA
  8
LAYER_1
 10
92.27470472405996
 20
39.22360294836596
 30
0.0
  0
VERTEX
  5
3DB
  8
LAYER_1
 10
91.77470472405996
 20
39.22360294836593
 30
0.0
  0
VERTEX
  5
3DC
  8
LAYER_1
 10
91.77470472405996
 20
40.71545275593001
 30
0.0
  0
VERTEX
  5
3DD
  8
LAYER_1
 10
88.77470472406
 20
40.71545275593001
 30
0.0
  0
VERTEX
  5
3DE
  8
LAYER_1
 10
88.77470472406
 20
39.2236029483659
 30
0.0
  0
VERTEX
  5
3DF
  8
LAYER_1
 10
88.52470472406
 20
39.2236029483659
 30
0.0
  0
VERTEX
  5
3E0
  8
LAYER_1
 10
88.52470472406
 20
37.72360294836607
 30
0.0
  0
VERTEX
  5
3E1
  8
LAYER_1
 10
88.77470472406
 20
37.72360294836607
 30
0.0
  0
VERTEX
  5
3E2
  8
LAYER_1
 10
88.77470472406
 20
34.79716139585926
 30
0.0
  0
VERTEX
  5
3E3
  8
LAYER_1
 10
88.52470472406
 20
34.79716139585909
 30
0.0
  0
VERTEX
  5
3E4
  8
LAYER_1
 10
88.52470472406
 20
33.29716139585926
 30
0.0
  0
VERTEX
  5
3E5
  8
LAYER_1
 10
88.77470472406
 20
33.29716139585926
 30
0.0
  0
VERTEX
  5
3E6
  8
LAYER_1
 10
88.77470472406
 20
32.33486020949967
 30
0.0
  0
SEQEND
  5
518
  8
LAYER_1
  0
POLYLINE
  5
CA
  8
LAYER_1
 66
     1
 10
0.0
 20
0.0
 30
0.0
 70
     1
  0
VERTEX
  5
3E7
  8
LAYER_1
 10
92.08966535397998
 20
1.17344288678968
 30
0.0
  0
VERTEX
  5
3E8
  8
LAYER_1
 10
92.08966535397998
 20
2.135744073149262
 30
0.0
  0
VERTEX
  5
3E9
  8
LAYER_1
 10
92.58966535397998
 20
2.135744073149262
 30
0.0
  0
VERTEX
  5
3EA
  8
LAYER_1
 10
92.58966535397998
 20
3.635744073149318
 30
0.0
  0
VERTEX
  5
3EB
  8
LAYER_1
 10
92.08966535397998
 20
3.635744073149262
 30
0.0
  0
VERTEX
  5
3EC
  8
LAYER_1
 10
92.08966535397998
 20
6.562185625656049
 30
0.0
  0
VERTEX
  5
3ED
  8
LAYER_1
 10
92.58966535397998
 20
6.562185625655964
 30
0.0
  0
VERTEX
  5
3EE
  8
LAYER_1
 10
92.58966535397998
 20
8.06218562565595
 30
0.0
  0
VERTEX
  5
3EF
  8
LAYER_1
 10
92.08966535397998
 20
8.062185625655921
 30
0.0
  0
VERTEX
  5
3F0
  8
LAYER_1
 10
92.08966535397998
 20
9.554035433220001
 30
0.0
  0
VERTEX
  5
3F1
  8
LAYER_1
 10
89.08966535398002
 20
9.554035433220001
 30
0.0
  0
VERTEX
  5
3F2
  8
LAYER_1
 10
89.08966535398002
 20
8.062185625655893
 30
0.0
  0
VERTEX
  5
3F3
  8
LAYER_1
 10
88.83966535398002
 20
8.062185625655893
 30
0.0
  0
VERTEX
  5
3F4
  8
LAYER_1
 10
88.83966535398002
 20
6.562185625656063
 30
0.0
  0
VERTEX
  5
3F5
  8
LAYER_1
 10
89.08966535398002
 20
6.562185625656063
 30
0.0
  0
VERTEX
  5
3F6
  8
LAYER_1
 10
89.08966535398002
 20
3.635744073149247
 30
0.0
  0
VERTEX
  5
3F7
  8
LAYER_1
 10
88.83966535398002
 20
3.635744073149077
 30
0.0
  0
VERTEX
  5
3F8
  8
LAYER_1
 10
88.83966535398001
 20
2.135744073149247
 30
0.0
  0
VERTEX
  5
3F9
  8
LAYER_1
 10
89.08966535398001
 20
2.135744073149247
 30
0.0
  0
VERTEX
  5
3FA
  8
LAYER_1
 10
89.08966535398001
 20
1.173442886789665
 30
0.0
  0
SEQEND
  5
519
  8
LAYER_1
  0
POLYLINE
  5
CB
  8
LAYER_1
 66
     1
 10
0.0
 20
0.0
 30
0.0
 70
     1
  0
VERTEX
  5
3FB
  8
LAYER_1
 10
95.77076771616997
 20
22.41360036701968
 30
0.0
  0
VERTEX
  5
3FC
  8
LAYER_1
 10
95.77076771616997
 20
23.37590155337926
 30
0.0
  0
VERTEX
  5
3FD
  8
LAYER_1
 10
96.27076771616997
 20
23.37590155337926
 30
0.0
  0
VERTEX
  5
3FE
  8
LAYER_1
 10
96.27076771616997
 20
24.87590155337932
 30
0.0
  0
VERTEX
  5
3FF
  8
LAYER_1
 10
95.77076771616997
 20
24.87590155337926
 30
0.0
  0
VERTEX
  5
400
  8
LAYER_1
 10
95.77076771616997
 20
27.80234310588605
 30
0.0
  0
VERTEX
  5
401
  8
LAYER_1
 10
96.27076771616997
 20
27.80234310588596
 30
0.0
  0
VERTEX
  5
402
  8
LAYER_1
 10
96.27076771616997
 20
29.30234310588595
 30
0.0
  0
VERTEX
  5
403
  8
LAYER_1
 10
95.77076771616997
 20
29.30234310588592
 30
0.0
  0
VERTEX
  5
404
  8
LAYER_1
 10
95.77076771616997
 20
30.79419291345
 30
0.0
  0
VERTEX
  5
405
  8
LAYER_1
 10
92.77076771617001
 20
30.79419291345
 30
0.0
  0
VERTEX
  5
406
  8
LAYER_1
 10
92.77076771617001
 20
29.30234310588589
 30
0.0
  0
VERTEX
  5
407
  8
LAYER_1
 10
92.52076771617001
 20
29.30234310588589
 30
0.0
  0
VERTEX
  5
408
  8
LAYER_1
 10
92.52076771617001
 20
27.80234310588606
 30
0.0
  0
VERTEX
  5
409
  8
LAYER_1
 10
92.77076771617001
 20
27.80234310588606
 30
0.0
  0
VERTEX
  5
40A
  8
LAYER_1
 10
92.77076771617001
 20
24.87590155337925
 30
0.0
  0
VERTEX
  5
40B
  8
LAYER_1
 10
92.52076771617001
 20
24.87590155337908
 30
0.0
  0
VERTEX
  5
40C
  8
LAYER_1
 10
92.52076771617
 20
23.37590155337925
 30
0.0
  0
VERTEX
  5
40D
  8
LAYER_1
 10
92.77076771617
 20
23.37590155337925
 30
0.0
  0
VERTEX
  5
40E
  8
LAYER_1
 10
92.77076771617
 20
22.41360036701967
 30
0.0
  0
SEQEND
  5
51A
  8
LAYER_1
  0
POLYLINE
  5
CC
  8
LAYER_1
 66
     1
 10
0.0
 20
0.0
 30
0.0
 70
     1
  0
VERTEX
  5
40F
  8
LAYER_1
 10
22.08055057730681
 20
15.56732949398467
 30
0.0
 42
0.4142135623730951
  0
VERTEX
  5
410
  8
LAYER_1
 10
21.83055057730681
 20
15.31732949398467
 30
0.0
 42
0.4142135623730951
  0
VERTEX
  5
411
  8
LAYER_1
 10
22.08055057730681
 20
15.06732949398467
 30
0.0
 42
0.4142135623730951
  0
VERTEX
  5
412
  8
LAYER_1
 10
22.33055057730681
 20
15.31732949398467
 30
0.0
 42
0.4142135623730951
  0
SEQEND
  5
51B
  8
LAYER_1
  0
POLYLINE
  5
CD
  8
LAYER_1
 66
     1
 10
0.0
 20
0.0
 30
0.0
 70
     1
  0
VERTEX
  5
413
  8
LAYER_1
 10
2.966377349036801
 20
15.56732949398467
 30
0.0
 42
0.4142135623730951
  0
VERTEX
  5
414
  8
LAYER_1
 10
2.716377349036801
 20
15.31732949398467
 30
0.0
 42
0.4142135623730951
  0
VERTEX
  5
415
  8
LAYER_1
 10
2.966377349036801
 20
15.06732949398467
 30
0.0
 42
0.4142135623730951
  0
VERTEX
  5
416
  8
LAYER_1
 10
3.216377349036801
 20
15.31732949398467
 30
0.0
 42
0.4142135623730951
  0
SEQEND
  5
51C
  8
LAYER_1
  0
POLYLINE
  5
CE
  8
LAYER_1
 66
     1
 10
0.0
 20
0.0
 30
0.0
 70
     1
  0
VERTEX
  5
417
  8
LAYER_1
 10
2.9663773490368
 20
34.68150272225466
 30
0.0
 42
0.4142135623730951
  0
VERTEX
  5
418
  8
LAYER_1
 10
2.7163773490368
 20
34.43150272225466
 30
0.0
 42
0.4142135623730951
  0
VERTEX
  5
419
  8
LAYER_1
 10
2.9663773490368
 20
34.18150272225466
 30
0.0
 42
0.4142135623730951
  0
VERTEX
  5
41A
  8
LAYER_1
 10
3.2163773490368
 20
34.43150272225466
 30
0.0
 42
0.4142135623730951
  0
SEQEND
  5
51D
  8
LAYER_1
  0
POLYLINE
  5
CF
  8
LAYER_1
 66
     1
 10
0.0
 20
0.0
 30
0.0
 70
     1
  0
VERTEX
  5
41B
  8
LAYER_1
 10
22.08055057730681
 20
34.68150272225466
 30
0.0
 42
0.4142135623730951
  0
VERTEX
  5
41C
  8
LAYER_1
 10
21.83055057730681
 20
34.43150272225466
 30
0.0
 42
0.4142135623730951
  0
VERTEX
  5
41D
  8
LAYER_1
 10
22.08055057730681
 20
34.18150272225466
 30
0.0
 42
0.4142135623730951
  0
VERTEX
  5
41E
  8
LAYER_1
 10
22.33055057730681
 20
34.43150272225466
 30
0.0
 42
0.4142135623730951
  0
SEQEND
  5
51E
  8
LAYER_1
  0
POLYLINE
  5
D0
  8
LAYER_1
 66
     1
 10
0.0
 20
0.0
 30
0.0
 70
     1
  0
VERTEX
  5
41F
  8
LAYER_1
 10
60.55889703384705
 20
34.68150272225468
 30
0.0
 42
0.4142135623730951
  0
VERTEX
  5
420
  8
LAYER_1
 10
60.30889703384705
 20
34.43150272225468
 30
0.0
 42
0.4142135623730951
  0
VERTEX
  5
421
  8
LAYER_1
 10
60.55889703384705
 20
34.18150272225468
 30
0.0
 42
0.4142135623730951
  0
VERTEX
  5
422
  8
LAYER_1
 10
60.80889703384705
 20
34.43150272225468
 30
0.0
 42
0.4142135623730951
  0
SEQEND
  5
51F
  8
LAYER_1
  0
POLYLINE
  5
D1
  8
LAYER_1
 66
     1
 10
0.0
 20
0.0
 30
0.0
 70
     1
  0
VERTEX
  5
423
  8
LAYER_1
 10
60.55889703384689
 20
15.56732949398467
 30
0.0
 42
0.4142135623730951
  0
VERTEX
  5
424
  8
LAYER_1
 10
60.30889703384689
 20
15.31732949398467
 30
0.0
 42
0.4142135623730951
  0
VERTEX
  5
425
  8
LAYER_1
 10
60.55889703384689
 20
15.06732949398467
 30
0.0
 42
0.4142135623730951
  0
VERTEX
  5
426
  8
LAYER_1
 10
60.80889703384689
 20
15.31732949398467
 30
0.0
 42
0.4142135623730951
  0
SEQEND
  5
520
  8
LAYER_1
  0
POLYLINE
  5
D2
  8
LAYER_1
 66
     1
 10
0.0
 20
0.0
 30
0.0
 70
     1
  0
VERTEX
  5
427
  8
LAYER_1
 10
37.0261118189819
 20
36.18694689695409
 30
0.0
 42
0.4142135623730951
  0
VERTEX
  5
428
  8
LAYER_1
 10
36.7761118189819
 20
35.93694689695409
 30
0.0
 42
0.4142135623730951
  0
VERTEX
  5
429
  8
LAYER_1
 10
37.0261118189819
 20
35.68694689695409
 30
0.0
 42
0.4142135623730951
  0
VERTEX
  5
42A
  8
LAYER_1
 10
37.2761118189819
 20
35.93694689695409
 30
0.0
 42
0.4142135623730951
  0
SEQEND
  5
521
  8
LAYER_1
  0
POLYLINE
  5
D3
  8
LAYER_1
 66
     1
 10
0.0
 20
0.0
 30
0.0
 70
     1
  0
VERTEX
  5
42B
  8
LAYER_1
 10
17.9119385907119
 20
36.18694689695409
 30
0.0
 42
0.4142135623730951
  0
VERTEX
  5
42C
  8
LAYER_1
 10
17.6619385907119
 20
35.93694689695409
 30
0.0
 42
0.4142135623730951
  0
VERTEX
  5
42D
  8
LAYER_1
 10
17.9119385907119
 20
35.68694689695409
 30
0.0
 42
0.4142135623730951
  0
VERTEX
  5
42E
  8
LAYER_1
 10
18.1619385907119
 20
35.93694689695409
 30
0.0
 42
0.4142135623730951
  0
SEQEND
  5
522
  8
LAYER_1
  0
POLYLINE
  5
D4
  8
LAYER_1
 66
     1
 10
0.0
 20
0.0
 30
0.0
 70
     1
  0
VERTEX
  5
42F
  8
LAYER_1
 10
17.91193859071189
 20
17.07277366868409
 30
0.0
 42
0.4142135623730951
  0
VERTEX
  5
430
  8
LAYER_1
 10
17.66193859071189
 20
16.82277366868409
 30
0.0
 42
0.4142135623730951
  0
VERTEX
  5
431
  8
LAYER_1
 10
17.91193859071189
 20
16.57277366868409
 30
0.0
 42
0.4142135623730951
  0
VERTEX
  5
432
  8
LAYER_1
 10
18.16193859071189
 20
16.82277366868409
 30
0.0
 42
0.4142135623730951
  0
SEQEND
  5
523
  8
LAYER_1
  0
POLYLINE
  5
D5
  8
LAYER_1
 66
     1
 10
0.0
 20
0.0
 30
0.0
 70
     1
  0
VERTEX
  5
433
  8
LAYER_1
 10
37.0261118189819
 20
17.07277366868409
 30
0.0
 42
0.4142135623730951
  0
VERTEX
  5
434
  8
LAYER_1
 10
36.7761118189819
 20
16.82277366868409
 30
0.0
 42
0.4142135623730951
  0
VERTEX
  5
435
  8
LAYER_1
 10
37.0261118189819
 20
16.57277366868409
 30
0.0
 42
0.4142135623730951
  0
VERTEX
  5
436
  8
LAYER_1
 10
37.2761118189819
 20
16.82277366868409
 30
0.0
 42
0.4142135623730951
  0
SEQEND
  5
524
  8
LAYER_1
  0
POLYLINE
  5
D6
  8
LAYER_1
 66
     1
 10
0.0
 20
0.0
 30
0.0
 70
     1
  0
VERTEX
  5
437
  8
LAYER_1
 10
31.13168785696871
 20
2.929018250518368
 30
0.0
  0
VERTEX
  5
438
  8
LAYER_1
 10
31.13168791548315
 20
2.909018309032973
 30
0.0
  0
VERTEX
  5
439
  8
LAYER_1
 10
31.13168791548315
 20
2.784018309032973
 30
0.0
  0
VERTEX
  5
43A
  8
LAYER_1
 10
35.54668785696863
 20
2.784018309032973
 30
0.0
  0
VERTEX
  5
43B
  8
LAYER_1
 10
35.54668785696863
 20
2.929018309032976
 30
0.0
  0
VERTEX
  5
43C
  8
LAYER_1
 10
35.54668785696865
 20
5.284035433180151
 30
0.0
  0
VERTEX
  5
43D
  8
LAYER_1
 10
37.67167322827002
 20
5.284035433180151
 30
0.0
  0
VERTEX
  5
43E
  8
LAYER_1
 10
37.67167322827002
 20
5.409035433180151
 30
0.0
  0
VERTEX
  5
43F
  8
LAYER_1
 10
37.67167322827002
 20
5.429035433179997
 30
0.0
  0
VERTEX
  5
440
  8
LAYER_1
 10
37.67167322827002
 20
15.30403543318
 30
0.0
  0
VERTEX
  5
441
  8
LAYER_1
 10
37.67167322827002
 20
15.32403543317984
 30
0.0
  0
VERTEX
  5
442
  8
LAYER_1
 10
37.67167322827002
 20
15.44903543317984
 30
0.0
  0
VERTEX
  5
443
  8
LAYER_1
 10
35.54668785696863
 20
15.44903543317984
 30
0.0
  0
VERTEX
  5
444
  8
LAYER_1
 10
35.54668785696863
 20
17.80405255732702
 30
0.0
  0
VERTEX
  5
445
  8
LAYER_1
 10
35.54668785696863
 20
17.82405255732702
 30
0.0
  0
VERTEX
  5
446
  8
LAYER_1
 10
35.54668785696863
 20
17.94905255732702
 30
0.0
  0
VERTEX
  5
447
  8
LAYER_1
 10
31.13168785696871
 20
17.94905255732702
 30
0.0
  0
VERTEX
  5
448
  8
LAYER_1
 10
31.13168785696871
 20
17.80405261584163
 30
0.0
  0
VERTEX
  5
449
  8
LAYER_1
 10
31.13168096683075
 20
15.44903801222144
 30
0.0
  0
VERTEX
  5
44A
  8
LAYER_1
 10
31.00667322827
 20
15.44903801222154
 30
0.0
  0
VERTEX
  5
44B
  8
LAYER_1
 10
31.00667322827
 20
15.32403801222154
 30
0.0
  0
VERTEX
  5
44C
  8
LAYER_1
 10
31.00667322827
 20
15.30403801224966
 30
0.0
  0
VERTEX
  5
44D
  8
LAYER_1
 10
31.00667322827
 20
14.88653801224963
 30
0.0
  0
VERTEX
  5
44E
  8
LAYER_1
 10
30.25667322827
 20
14.88653801224963
 30
0.0
  0
VERTEX
  5
44F
  8
LAYER_1
 10
30.25667322827
 20
14.76153801224963
 30
0.0
  0
VERTEX
  5
450
  8
LAYER_1
 10
30.25667322827
 20
14.74153801224963
 30
0.0
  0
VERTEX
  5
451
  8
LAYER_1
 10
30.25667322827
 20
10.92903543318
 30
0.0
 42
0.4142135623731061
  0
VERTEX
  5
452
  8
LAYER_1
 10
30.27667322827
 20
10.90903543317999
 30
0.0
  0
VERTEX
  5
453
  8
LAYER_1
 10
31.00667322827
 20
10.90903543317999
 30
0.0
  0
VERTEX
  5
454
  8
LAYER_1
 10
31.00667322827
 20
9.82403543318
 30
0.0
  0
VERTEX
  5
455
  8
LAYER_1
 10
30.27667322827
 20
9.82403543318
 30
0.0
 42
0.4142135623731061
  0
VERTEX
  5
456
  8
LAYER_1
 10
30.25667322827
 20
9.804035433179997
 30
0.0
  0
VERTEX
  5
457
  8
LAYER_1
 10
30.25667322827
 20
5.991532854110368
 30
0.0
  0
VERTEX
  5
458
  8
LAYER_1
 10
30.25667322827
 20
5.971532854110364
 30
0.0
  0
VERTEX
  5
459
  8
LAYER_1
 10
30.25667322826999
 20
5.846532854110364
 30
0.0
  0
VERTEX
  5
45A
  8
LAYER_1
 10
31.00667322827
 20
5.84653285411038
 30
0.0
  0
VERTEX
  5
45B
  8
LAYER_1
 10
31.00667322827
 20
5.429032854110339
 30
0.0
  0
VERTEX
  5
45C
  8
LAYER_1
 10
31.00667322827
 20
5.409032854138452
 30
0.0
  0
VERTEX
  5
45D
  8
LAYER_1
 10
31.00667322827
 20
5.284032854138452
 30
0.0
  0
VERTEX
  5
45E
  8
LAYER_1
 10
31.13168096683075
 20
5.284032854138473
 30
0.0
  0
SEQEND
  5
525
  8
LAYER_1
  0
POLYLINE
  5
D7
  8
LAYER_1
 66
     1
 10
0.0
 20
0.0
 30
0.0
 70
     1
  0
VERTEX
  5
45F
  8
LAYER_1
 10
12.26251462869862
 20
3.307801278645421
 30
0.0
 42
0.4142135623730951
  0
VERTEX
  5
460
  8
LAYER_1
 10
12.51251462869862
 20
3.057801278645421
 30
0.0
  0
VERTEX
  5
461
  8
LAYER_1
 10
15.66251462869862
 20
3.057801278645421
 30
0.0
 42
0.4142135623730951
  0
VERTEX
  5
462
  8
LAYER_1
 10
15.91251462869862
 20
3.307801278645421
 30
0.0
  0
VERTEX
  5
463
  8
LAYER_1
 10
15.91251462869862
 20
5.057801278645421
 30
0.0
 42
0.4142135623730951
  0
VERTEX
  5
464
  8
LAYER_1
 10
15.66251462869862
 20
5.307801278645421
 30
0.0
  0
VERTEX
  5
465
  8
LAYER_1
 10
12.51251462869862
 20
5.307801278645421
 30
0.0
 42
0.4142135623730951
  0
VERTEX
  5
466
  8
LAYER_1
 10
12.26251462869862
 20
5.057801278645421
 30
0.0
  0
SEQEND
  5
526
  8
LAYER_1
  0
POLYLINE
  5
D8
  8
LAYER_1
 66
     1
 10
0.0
 20
0.0
 30
0.0
 70
     1
  0
VERTEX
  5
467
  8
LAYER_1
 10
1.162500000000004
 20
19.55403543318
 30
0.0
  0
VERTEX
  5
468
  8
LAYER_1
 10
1.162500000000005
 20
1.179035433179997
 30
0.0
  0
VERTEX
  5
469
  8
LAYER_1
 10
19.5375
 20
1.179035433179997
 30
0.0
  0
VERTEX
  5
46A
  8
LAYER_1
 10
19.5375
 20
19.55403543318
 30
0.0
  0
SEQEND
  5
527
  8
LAYER_1
  0
POLYLINE
  5
D9
  8
LAYER_1
 66
     1
 10
0.0
 20
0.0
 30
0.0
 70
     1
  0
VERTEX
  5
46B
  8
LAYER_1
 10
12.26251462869862
 20
17.42526958771457
 30
0.0
 42
-0.4142135623730951
  0
VERTEX
  5
46C
  8
LAYER_1
 10
12.51251462869862
 20
17.67526958771457
 30
0.0
  0
VERTEX
  5
46D
  8
LAYER_1
 10
15.66251462869862
 20
17.67526958771457
 30
0.0
 42
-0.4142135623730951
  0
VERTEX
  5
46E
  8
LAYER_1
 10
15.91251462869862
 20
17.42526958771457
 30
0.0
  0
VERTEX
  5
46F
  8
LAYER_1
 10
15.91251462869862
 20
15.67526958771457
 30
0.0
 42
-0.4142135623730951
  0
VERTEX
  5
470
  8
LAYER_1
 10
15.66251462869862
 20
15.42526958771457
 30
0.0
  0
VERTEX
  5
471
  8
LAYER_1
 10
12.51251462869862
 20
15.42526958771457
 30
0.0
 42
-0.4142135623730951
  0
VERTEX
  5
472
  8
LAYER_1
 10
12.26251462869862
 20
15.67526958771457
 30
0.0
  0
SEQEND
  5
528
  8
LAYER_1
  0
POLYLINE
  5
DA
  8
LAYER_1
 66
     1
 10
0.0
 20
0.0
 30
0.0
 70
     1
  0
VERTEX
  5
473
  8
LAYER_1
 10
10.91249999999999
 20
28.91820866145
 30
0.0
  0
VERTEX
  5
474
  8
LAYER_1
 10
10.91249999999999
 20
25.10570608238037
 30
0.0
 42
0.414213562373095
  0
VERTEX
  5
475
  8
LAYER_1
 10
11.16249999999999
 20
24.85570608238037
 30
0.0
  0
VERTEX
  5
476
  8
LAYER_1
 10
11.91249999999999
 20
24.85570608238037
 30
0.0
 42
0.414213562373095
  0
VERTEX
  5
477
  8
LAYER_1
 10
12.16249999999999
 20
25.10570608238037
 30
0.0
  0
VERTEX
  5
478
  8
LAYER_1
 10
12.16249999999999
 20
28.91820866145
 30
0.0
 42
0.414213562373095
  0
VERTEX
  5
479
  8
LAYER_1
 10
11.91249999999999
 20
29.16820866145
 30
0.0
  0
VERTEX
  5
47A
  8
LAYER_1
 10
11.16249999999999
 20
29.16820866145
 30
0.0
 42
0.414213562373095
  0
SEQEND
  5
529
  8
LAYER_1
  0
POLYLINE
  5
DB
  8
LAYER_1
 66
     1
 10
0.0
 20
0.0
 30
0.0
 70
     1
  0
VERTEX
  5
47B
  8
LAYER_1
 10
11.91249999999999
 20
14.99153801224963
 30
0.0
  0
VERTEX
  5
47C
  8
LAYER_1
 10
11.16249999999999
 20
14.99153801224963
 30
0.0
 42
0.414213562373095
  0
VERTEX
  5
47D
  8
LAYER_1
 10
10.91249999999999
 20
14.74153801224963
 30
0.0
  0
VERTEX
  5
47E
  8
LAYER_1
 10
10.91249999999999
 20
10.92903543318
 30
0.0
 42
0.414213562373095
  0
VERTEX
  5
47F
  8
LAYER_1
 10
11.16249999999999
 20
10.67903543318
 30
0.0
  0
VERTEX
  5
480
  8
LAYER_1
 10
11.91249999999999
 20
10.67903543318
 30
0.0
 42
0.414213562373095
  0
VERTEX
  5
481
  8
LAYER_1
 10
12.16249999999999
 20
10.92903543318
 30
0.0
  0
VERTEX
  5
482
  8
LAYER_1
 10
12.16249999999999
 20
14.74153801224963
 30
0.0
 42
0.414213562373095
  0
SEQEND
  5
52A
  8
LAYER_1
  0
POLYLINE
  5
DC
  8
LAYER_1
 66
     1
 10
0.0
 20
0.0
 30
0.0
 70
     1
  0
VERTEX
  5
483
  8
LAYER_1
 10
11.16249999999999
 20
10.05403543318
 30
0.0
 42
0.4142135562008353
  0
VERTEX
  5
484
  8
LAYER_1
 10
10.91249999999999
 20
9.804035438448354
 30
0.0
  0
VERTEX
  5
485
  8
LAYER_1
 10
10.91249999999999
 20
5.991532859378724
 30
0.0
 42
0.4142135685453548
  0
VERTEX
  5
486
  8
LAYER_1
 10
11.16249999999999
 20
5.741532854110368
 30
0.0
  0
VERTEX
  5
487
  8
LAYER_1
 10
11.91249999999999
 20
5.741532854110368
 30
0.0
 42
0.414213562373095
  0
VERTEX
  5
488
  8
LAYER_1
 10
12.16249999999999
 20
5.991532854110368
 30
0.0
  0
VERTEX
  5
489
  8
LAYER_1
 10
12.16249999999999
 20
9.804035433179997
 30
0.0
 42
0.414213562373095
  0
VERTEX
  5
48A
  8
LAYER_1
 10
11.91249999999999
 20
10.05403543318
 30
0.0
  0
SEQEND
  5
52B
  8
LAYER_1
  0
POLYLINE
  5
DD
  8
LAYER_1
 66
     1
 10
0.0
 20
0.0
 30
0.0
 70
     1
  0
VERTEX
  5
48B
  8
LAYER_1
 10
10.91249999999999
 20
30.04320866145
 30
0.0
 42
0.414213562373095
  0
VERTEX
  5
48C
  8
LAYER_1
 10
11.16249999999999
 20
29.79320866145
 30
0.0
  0
VERTEX
  5
48D
  8
LAYER_1
 10
11.91249999999999
 20
29.79320866145
 30
0.0
 42
0.414213562373095
  0
VERTEX
  5
48E
  8
LAYER_1
 10
12.16249999999999
 20
30.04320866145
 30
0.0
  0
VERTEX
  5
48F
  8
LAYER_1
 10
12.16249999999999
 20
33.85571124051962
 30
0.0
 42
0.414213562373095
  0
VERTEX
  5
490
  8
LAYER_1
 10
11.91249999999999
 20
34.10571124051962
 30
0.0
  0
VERTEX
  5
491
  8
LAYER_1
 10
11.16249999999999
 20
34.10571124051962
 30
0.0
 42
0.414213562373095
  0
VERTEX
  5
492
  8
LAYER_1
 10
10.91249999999999
 20
33.85571124051962
 30
0.0
  0
SEQEND
  5
52C
  8
LAYER_1
  0
POLYLINE
  5
DE
  8
LAYER_1
 66
     1
 10
0.0
 20
0.0
 30
0.0
 70
     1
  0
VERTEX
  5
493
  8
LAYER_1
 10
20.27667322827001
 20
19.55403543318
 30
0.0
  0
VERTEX
  5
494
  8
LAYER_1
 10
20.27667322827001
 20
1.179035433179997
 30
0.0
  0
VERTEX
  5
495
  8
LAYER_1
 10
38.65167322827001
 20
1.179035433179997
 30
0.0
  0
VERTEX
  5
496
  8
LAYER_1
 10
38.65167322827001
 20
19.55403543318
 30
0.0
  0
SEQEND
  5
52D
  8
LAYER_1
  0
POLYLINE
  5
DF
  8
LAYER_1
 66
     1
 10
0.0
 20
0.0
 30
0.0
 70
     1
  0
VERTEX
  5
497
  8
LAYER_1
 10
31.13168785696871
 20
22.04319147878837
 30
0.0
  0
VERTEX
  5
498
  8
LAYER_1
 10
31.13168791548315
 20
22.02319153730297
 30
0.0
  0
VERTEX
  5
499
  8
LAYER_1
 10
31.13168791548315
 20
21.89819153730297
 30
0.0
  0
VERTEX
  5
49A
  8
LAYER_1
 10
35.54668785696863
 20
21.89819153730297
 30
0.0
  0
VERTEX
  5
49B
  8
LAYER_1
 10
35.54668785696863
 20
22.04319153730297
 30
0.0
  0
VERTEX
  5
49C
  8
LAYER_1
 10
35.54668785696865
 20
24.39820866145015
 30
0.0
  0
VERTEX
  5
49D
  8
LAYER_1
 10
37.67167322827002
 20
24.39820866145015
 30
0.0
  0
VERTEX
  5
49E
  8
LAYER_1
 10
37.67167322827002
 20
24.52320866145015
 30
0.0
  0
VERTEX
  5
49F
  8
LAYER_1
 10
37.67167322827002
 20
24.54320866145
 30
0.0
  0
VERTEX
  5
4A0
  8
LAYER_1
 10
37.67167322827002
 20
34.41820866145
 30
0.0
  0
VERTEX
  5
4A1
  8
LAYER_1
 10
37.67167322827002
 20
34.43820866144984
 30
0.0
  0
VERTEX
  5
4A2
  8
LAYER_1
 10
37.67167322827002
 20
34.56320866144984
 30
0.0
  0
VERTEX
  5
4A3
  8
LAYER_1
 10
35.54668785696863
 20
34.56320866144984
 30
0.0
  0
VERTEX
  5
4A4
  8
LAYER_1
 10
35.54668785696863
 20
36.91822578559702
 30
0.0
  0
VERTEX
  5
4A5
  8
LAYER_1
 10
35.54668785696863
 20
36.93822578559702
 30
0.0
  0
VERTEX
  5
4A6
  8
LAYER_1
 10
35.54668785696863
 20
37.06322578559702
 30
0.0
  0
VERTEX
  5
4A7
  8
LAYER_1
 10
31.13168785696871
 20
37.06322578559702
 30
0.0
  0
VERTEX
  5
4A8
  8
LAYER_1
 10
31.13168785696871
 20
36.91822584411162
 30
0.0
  0
VERTEX
  5
4A9
  8
LAYER_1
 10
31.13168096683075
 20
34.56321124049144
 30
0.0
  0
VERTEX
  5
4AA
  8
LAYER_1
 10
31.00667322827
 20
34.56321124049154
 30
0.0
  0
VERTEX
  5
4AB
  8
LAYER_1
 10
31.00667322827
 20
34.43821124049154
 30
0.0
  0
VERTEX
  5
4AC
  8
LAYER_1
 10
31.00667322827
 20
34.41821124051965
 30
0.0
  0
VERTEX
  5
4AD
  8
LAYER_1
 10
31.00667322827
 20
34.00071124051963
 30
0.0
  0
VERTEX
  5
4AE
  8
LAYER_1
 10
30.25667322827
 20
34.00071124051963
 30
0.0
  0
VERTEX
  5
4AF
  8
LAYER_1
 10
30.25667322827
 20
33.87571124051963
 30
0.0
  0
VERTEX
  5
4B0
  8
LAYER_1
 10
30.25667322827
 20
33.85571124051962
 30
0.0
  0
VERTEX
  5
4B1
  8
LAYER_1
 10
30.25667322827
 20
30.04320866145
 30
0.0
 42
0.4142135623731061
  0
VERTEX
  5
4B2
  8
LAYER_1
 10
30.27667322827
 20
30.02320866144999
 30
0.0
  0
VERTEX
  5
4B3
  8
LAYER_1
 10
31.00667322827
 20
30.02320866144999
 30
0.0
  0
VERTEX
  5
4B4
  8
LAYER_1
 10
31.00667322827
 20
28.93820866145
 30
0.0
  0
VERTEX
  5
4B5
  8
LAYER_1
 10
30.27667322827
 20
28.93820866145
 30
0.0
 42
0.4142135623731061
  0
VERTEX
  5
4B6
  8
LAYER_1
 10
30.25667322827
 20
28.91820866145
 30
0.0
  0
VERTEX
  5
4B7
  8
LAYER_1
 10
30.25667322827
 20
25.10570608238037
 30
0.0
  0
VERTEX
  5
4B8
  8
LAYER_1
 10
30.25667322827
 20
25.08570608238036
 30
0.0
  0
VERTEX
  5
4B9
  8
LAYER_1
 10
30.25667322826999
 20
24.96070608238036
 30
0.0
  0
VERTEX
  5
4BA
  8
LAYER_1
 10
31.00667322827
 20
24.96070608238038
 30
0.0
  0
VERTEX
  5
4BB
  8
LAYER_1
 10
31.00667322827
 20
24.54320608238034
 30
0.0
  0
VERTEX
  5
4BC
  8
LAYER_1
 10
31.00667322827
 20
24.52320608240845
 30
0.0
  0
VERTEX
  5
4BD
  8
LAYER_1
 10
31.00667322827
 20
24.39820608240845
 30
0.0
  0
VERTEX
  5
4BE
  8
LAYER_1
 10
31.13168096683075
 20
24.39820608240847
 30
0.0
  0
SEQEND
  5
52E
  8
LAYER_1
  0
ENDSEC
  0
EOF
